<svg width="69" height="97" viewBox="0 0 69 97" fill="none" xmlns="http://www.w3.org/2000/svg">
<mask id="path-1-outside-1_0_728" maskUnits="userSpaceOnUse" x="-1" y="-1" width="71" height="99" fill="black">
<rect fill="white" x="-1" y="-1" width="71" height="99"/>
<path d="M1.68 97V77.8C1.68 73.7893 2.32 70.2907 3.6 67.304C4.96533 64.3173 7.09867 61.672 10 59.368C12.9013 56.9787 16.7413 54.76 21.52 52.712L36.624 46.184C40.464 44.5627 43.28 42.5573 45.072 40.168C46.9493 37.7787 47.888 34.7493 47.888 31.08C47.888 27.3253 46.736 24.2533 44.432 21.864C42.128 19.4747 38.7573 18.28 34.32 18.28C29.8827 18.28 26.512 19.5173 24.208 21.992C21.904 24.4667 20.752 27.7947 20.752 31.976H0.4C0.4 26.088 1.68 20.7973 4.24 16.104C6.8 11.3253 10.5973 7.57066 15.632 4.84C20.6667 2.10933 26.896 0.743996 34.32 0.743996C41.744 0.743996 47.9307 2.06666 52.88 4.712C57.9147 7.35733 61.712 10.8987 64.272 15.336C66.9173 19.7733 68.24 24.7653 68.24 30.312V31.848C68.24 39.016 66.2773 44.9467 62.352 49.64C58.4267 54.248 52.368 58.344 44.176 61.928L29.2 68.456C26.64 69.5653 24.8053 70.7173 23.696 71.912C22.672 73.1067 22.16 74.728 22.16 76.776V83.176L17.168 78.952H68.368V97H1.68Z"/>
</mask>
<path d="M1.68 97V77.8C1.68 73.7893 2.32 70.2907 3.6 67.304C4.96533 64.3173 7.09867 61.672 10 59.368C12.9013 56.9787 16.7413 54.76 21.52 52.712L36.624 46.184C40.464 44.5627 43.28 42.5573 45.072 40.168C46.9493 37.7787 47.888 34.7493 47.888 31.08C47.888 27.3253 46.736 24.2533 44.432 21.864C42.128 19.4747 38.7573 18.28 34.32 18.28C29.8827 18.28 26.512 19.5173 24.208 21.992C21.904 24.4667 20.752 27.7947 20.752 31.976H0.4C0.4 26.088 1.68 20.7973 4.24 16.104C6.8 11.3253 10.5973 7.57066 15.632 4.84C20.6667 2.10933 26.896 0.743996 34.32 0.743996C41.744 0.743996 47.9307 2.06666 52.88 4.712C57.9147 7.35733 61.712 10.8987 64.272 15.336C66.9173 19.7733 68.24 24.7653 68.24 30.312V31.848C68.24 39.016 66.2773 44.9467 62.352 49.64C58.4267 54.248 52.368 58.344 44.176 61.928L29.2 68.456C26.64 69.5653 24.8053 70.7173 23.696 71.912C22.672 73.1067 22.16 74.728 22.16 76.776V83.176L17.168 78.952H68.368V97H1.68Z" fill="url(#paint0_linear_0_728)" fill-opacity="0.5"/>
<path d="M1.68 97H0.68V98H1.68V97ZM3.6 67.304L2.69053 66.8882L2.68556 66.8991L2.68086 66.9101L3.6 67.304ZM10 59.368L10.6219 60.1511L10.6288 60.1456L10.6357 60.1399L10 59.368ZM21.52 52.712L21.9139 53.6311L21.9167 53.6299L21.52 52.712ZM36.624 46.184L36.235 45.2627L36.2273 45.2661L36.624 46.184ZM45.072 40.168L44.2857 39.5502L44.2787 39.559L44.272 39.568L45.072 40.168ZM24.208 21.992L24.9399 22.6734L24.208 21.992ZM20.752 31.976V32.976H21.752V31.976H20.752ZM0.4 31.976H-0.6V32.976H0.4V31.976ZM4.24 16.104L5.11792 16.5829L5.12148 16.5762L4.24 16.104ZM15.632 4.84L16.1088 5.71903L15.632 4.84ZM52.88 4.712L52.4086 5.59395L52.4149 5.59724L52.88 4.712ZM64.272 15.336L63.4058 15.8357L63.4094 15.8419L63.4131 15.8481L64.272 15.336ZM62.352 49.64L63.1133 50.2885L63.1191 50.2816L62.352 49.64ZM44.176 61.928L44.5756 62.8447L44.5768 62.8442L44.176 61.928ZM29.2 68.456L29.5976 69.3736L29.5996 69.3727L29.2 68.456ZM23.696 71.912L22.9632 71.2315L22.9497 71.2461L22.9367 71.2612L23.696 71.912ZM22.16 83.176L21.5141 83.9394L23.16 85.3321V83.176H22.16ZM17.168 78.952V77.952H14.4381L16.5221 79.7154L17.168 78.952ZM68.368 78.952H69.368V77.952H68.368V78.952ZM68.368 97V98H69.368V97H68.368ZM2.68 97V77.8H0.68V97H2.68ZM2.68 77.8C2.68 73.8939 3.30342 70.5346 4.51915 67.6979L2.68086 66.9101C1.33658 70.0467 0.68 73.6847 0.68 77.8H2.68ZM4.50947 67.7198C5.80126 64.894 7.82806 62.3697 10.6219 60.1511L9.37812 58.5849C6.36928 60.9743 4.12941 63.7407 2.69053 66.8882L4.50947 67.7198ZM10.6357 60.1399C13.4419 57.829 17.1917 55.655 21.9139 53.6311L21.1261 51.7929C16.291 53.865 12.3608 56.1283 9.36429 58.5961L10.6357 60.1399ZM21.9167 53.6299L37.0207 47.1019L36.2273 45.2661L21.1233 51.7941L21.9167 53.6299ZM37.013 47.1052C40.9546 45.441 43.9399 43.3441 45.872 40.768L44.272 39.568C42.6201 41.7706 39.9734 43.6843 36.235 45.2627L37.013 47.1052ZM45.8583 40.7858C47.9011 38.1859 48.888 34.9254 48.888 31.08H46.888C46.888 34.5733 45.9976 37.3714 44.2857 39.5502L45.8583 40.7858ZM48.888 31.08C48.888 27.1032 47.6596 23.7705 45.1518 21.1699L43.7122 22.5581C45.8124 24.7362 46.888 27.5474 46.888 31.08H48.888ZM45.1518 21.1699C42.6023 18.5259 38.9339 17.28 34.32 17.28V19.28C38.5808 19.28 41.6537 20.4234 43.7122 22.5581L45.1518 21.1699ZM34.32 17.28C29.6962 17.28 26.0235 18.5745 23.4761 21.3106L24.9399 22.6734C27.0005 20.4602 30.0692 19.28 34.32 19.28V17.28ZM23.4761 21.3106C20.9613 24.0116 19.752 27.6045 19.752 31.976H21.752C21.752 27.9848 22.8467 24.9217 24.9399 22.6734L23.4761 21.3106ZM20.752 30.976H0.4V32.976H20.752V30.976ZM1.4 31.976C1.4 26.238 2.64593 21.1148 5.1179 16.5828L3.36211 15.6251C0.714076 20.4799 -0.6 25.938 -0.6 31.976H1.4ZM5.12148 16.5762C7.58388 11.9797 11.2356 8.36208 16.1088 5.71903L15.1552 3.96096C9.95903 6.77925 6.01612 10.6709 3.35852 15.6318L5.12148 16.5762ZM16.1088 5.71903C20.9601 3.08782 27.0146 1.744 34.32 1.744V-0.256004C26.7774 -0.256004 20.3733 1.13084 15.1552 3.96096L16.1088 5.71903ZM34.32 1.744C41.6307 1.744 47.6436 3.04709 52.4086 5.59393L53.3514 3.83007C48.2178 1.08624 41.8573 -0.256004 34.32 -0.256004V1.744ZM52.4149 5.59724C57.3011 8.1646 60.9506 11.5799 63.4058 15.8357L65.1382 14.8363C62.4734 10.2174 58.5282 6.55005 53.3451 3.82675L52.4149 5.59724ZM63.4131 15.8481C65.9593 20.1191 67.24 24.9318 67.24 30.312H69.24C69.24 24.5988 67.8754 19.4275 65.131 14.8239L63.4131 15.8481ZM67.24 30.312V31.848H69.24V30.312H67.24ZM67.24 31.848C67.24 38.8237 65.3347 44.515 61.5849 48.9984L63.1191 50.2816C67.2199 45.3783 69.24 39.2083 69.24 31.848H67.24ZM61.5908 48.9915C57.7993 53.4424 51.8892 57.4619 43.7752 61.0118L44.5768 62.8442C52.8468 59.2261 59.0541 55.0536 63.1133 50.2885L61.5908 48.9915ZM43.7764 61.0113L28.8004 67.5393L29.5996 69.3727L44.5756 62.8447L43.7764 61.0113ZM28.8024 67.5384C26.1932 68.6691 24.2109 69.8878 22.9632 71.2315L24.4288 72.5925C25.3997 71.5468 27.0868 70.4616 29.5976 69.3736L28.8024 67.5384ZM22.9367 71.2612C21.7155 72.686 21.16 74.5626 21.16 76.776H23.16C23.16 74.8934 23.6285 73.5274 24.4553 72.5628L22.9367 71.2612ZM21.16 76.776V83.176H23.16V76.776H21.16ZM22.8059 82.4126L17.8139 78.1886L16.5221 79.7154L21.5141 83.9394L22.8059 82.4126ZM17.168 79.952H68.368V77.952H17.168V79.952ZM67.368 78.952V97H69.368V78.952H67.368ZM68.368 96H1.68V98H68.368V96Z" fill="url(#paint1_linear_0_728)" mask="url(#path-1-outside-1_0_728)"/>
<defs>
<linearGradient id="paint0_linear_0_728" x1="34.5" y1="-11" x2="34.8395" y2="76.0016" gradientUnits="userSpaceOnUse">
<stop stop-color="#FDBC14"/>
<stop offset="1" stop-color="#FDBC14" stop-opacity="0"/>
</linearGradient>
<linearGradient id="paint1_linear_0_728" x1="34.5" y1="-11" x2="34.5" y2="38" gradientUnits="userSpaceOnUse">
<stop stop-color="#FDBC14"/>
<stop offset="1" stop-color="#292929" stop-opacity="0"/>
</linearGradient>
</defs>
</svg>
