<svg width="71" height="97" viewBox="0 0 71 97" fill="none" xmlns="http://www.w3.org/2000/svg">
<mask id="path-1-outside-1_0_732" maskUnits="userSpaceOnUse" x="-1" y="-1" width="74" height="99" fill="black">
<rect fill="white" x="-1" y="-1" width="74" height="99"/>
<path d="M35.68 96.432C28.4267 96.432 22.112 95.1093 16.736 92.464C11.4453 89.7333 7.392 86.064 4.576 81.456C1.76 76.848 0.352 71.6427 0.352 65.84H20.576C20.576 69.7653 21.8987 72.9653 24.544 75.44C27.1893 77.8293 30.9013 79.024 35.68 79.024C38.8373 79.024 41.5253 78.4267 43.744 77.232C45.9627 76.0373 47.6693 74.416 48.864 72.368C50.0587 70.2347 50.656 67.8453 50.656 65.2C50.656 61.104 49.3333 57.7333 46.688 55.088C44.128 52.4427 40.4587 51.12 35.68 51.12C33.12 51.12 30.8587 51.504 28.896 52.272C27.0187 53.04 25.3973 53.9787 24.032 55.088L14.56 39.088L42.848 20.656L41.696 18.48H4.192V0.559998H67.168V20.016L34.528 40.752L24.288 37.936C25.9947 37.424 27.7867 37.04 29.664 36.784C31.6267 36.4427 33.7173 36.272 35.936 36.272C43.1893 36.272 49.4187 37.4667 54.624 39.856C59.8293 42.2453 63.84 45.616 66.656 49.968C69.5573 54.2347 71.008 59.2267 71.008 64.944V66.48C71.008 72.1973 69.5573 77.3173 66.656 81.84C63.84 86.3627 59.7867 89.9467 54.496 92.592C49.2907 95.152 43.0187 96.432 35.68 96.432Z"/>
</mask>
<path d="M35.68 96.432C28.4267 96.432 22.112 95.1093 16.736 92.464C11.4453 89.7333 7.392 86.064 4.576 81.456C1.76 76.848 0.352 71.6427 0.352 65.84H20.576C20.576 69.7653 21.8987 72.9653 24.544 75.44C27.1893 77.8293 30.9013 79.024 35.68 79.024C38.8373 79.024 41.5253 78.4267 43.744 77.232C45.9627 76.0373 47.6693 74.416 48.864 72.368C50.0587 70.2347 50.656 67.8453 50.656 65.2C50.656 61.104 49.3333 57.7333 46.688 55.088C44.128 52.4427 40.4587 51.12 35.68 51.12C33.12 51.12 30.8587 51.504 28.896 52.272C27.0187 53.04 25.3973 53.9787 24.032 55.088L14.56 39.088L42.848 20.656L41.696 18.48H4.192V0.559998H67.168V20.016L34.528 40.752L24.288 37.936C25.9947 37.424 27.7867 37.04 29.664 36.784C31.6267 36.4427 33.7173 36.272 35.936 36.272C43.1893 36.272 49.4187 37.4667 54.624 39.856C59.8293 42.2453 63.84 45.616 66.656 49.968C69.5573 54.2347 71.008 59.2267 71.008 64.944V66.48C71.008 72.1973 69.5573 77.3173 66.656 81.84C63.84 86.3627 59.7867 89.9467 54.496 92.592C49.2907 95.152 43.0187 96.432 35.68 96.432Z" fill="url(#paint0_linear_0_732)" fill-opacity="0.5"/>
<path d="M16.736 92.464L16.2774 93.3526L16.2859 93.357L16.2945 93.3613L16.736 92.464ZM4.576 81.456L3.72272 81.9774L4.576 81.456ZM0.352 65.84V64.84H-0.648V65.84H0.352ZM20.576 65.84H21.576V64.84H20.576V65.84ZM24.544 75.44L23.8608 76.1703L23.8672 76.1762L23.8737 76.1821L24.544 75.44ZM43.744 77.232L44.2181 78.1125L43.744 77.232ZM48.864 72.368L49.7278 72.8719L49.7322 72.8643L49.7365 72.8566L48.864 72.368ZM46.688 55.088L45.9694 55.7834L45.9751 55.7893L45.9809 55.7951L46.688 55.088ZM28.896 52.272L28.5316 51.3408L28.5245 51.3436L28.5174 51.3465L28.896 52.272ZM24.032 55.088L23.1715 55.5974L23.7624 56.5955L24.6626 55.8641L24.032 55.088ZM14.56 39.088L14.0141 38.2502L13.2115 38.7731L13.6995 39.5974L14.56 39.088ZM42.848 20.656L43.3939 21.4938L44.1591 20.9953L43.7318 20.1881L42.848 20.656ZM41.696 18.48L42.5798 18.0121L42.2981 17.48H41.696V18.48ZM4.192 18.48H3.192V19.48H4.192V18.48ZM4.192 0.559998V-0.440002H3.192V0.559998H4.192ZM67.168 0.559998H68.168V-0.440002H67.168V0.559998ZM67.168 20.016L67.7042 20.8601L68.168 20.5654V20.016H67.168ZM34.528 40.752L34.2628 41.7162L34.6902 41.8337L35.0642 41.5961L34.528 40.752ZM24.288 37.936L24.0007 36.9782L20.6686 37.9778L24.0228 38.9002L24.288 37.936ZM29.664 36.784L29.7991 37.7748L29.8173 37.7724L29.8353 37.7692L29.664 36.784ZM54.624 39.856L54.2068 40.7648L54.624 39.856ZM66.656 49.968L65.8164 50.5113L65.8226 50.5209L65.8291 50.5303L66.656 49.968ZM66.656 81.84L65.8142 81.3L65.8071 81.3114L66.656 81.84ZM54.496 92.592L54.9373 93.4894L54.9432 93.4864L54.496 92.592ZM35.68 95.432C28.548 95.432 22.3902 94.1317 17.1775 91.5667L16.2945 93.3613C21.8338 96.0869 28.3054 97.432 35.68 97.432V95.432ZM17.1946 91.5754C12.0495 88.9198 8.14021 85.3706 5.42928 80.9345L3.72272 81.9774C6.64379 86.7574 10.8412 90.5469 16.2774 93.3526L17.1946 91.5754ZM5.42928 80.9345C2.7164 76.4953 1.352 71.4729 1.352 65.84H-0.648C-0.648 71.8124 0.803602 77.2007 3.72272 81.9774L5.42928 80.9345ZM0.352 66.84H20.576V64.84H0.352V66.84ZM19.576 65.84C19.576 70.0163 20.9953 73.4896 23.8608 76.1703L25.2272 74.7097C22.8021 72.4411 21.576 69.5144 21.576 65.84H19.576ZM23.8737 76.1821C26.7578 78.7871 30.7393 80.024 35.68 80.024V78.024C31.0633 78.024 27.6209 76.8716 25.2143 74.6979L23.8737 76.1821ZM35.68 80.024C38.9617 80.024 41.8214 79.403 44.2181 78.1125L43.2699 76.3515C41.2293 77.4503 38.7129 78.024 35.68 78.024V80.024ZM44.2181 78.1125C46.5882 76.8362 48.4345 75.089 49.7278 72.8719L48.0002 71.8641C46.9042 73.743 45.3371 75.2384 43.2699 76.3515L44.2181 78.1125ZM49.7365 72.8566C51.0215 70.5619 51.656 68.002 51.656 65.2H49.656C49.656 67.6887 49.0958 69.9074 47.9915 71.8794L49.7365 72.8566ZM51.656 65.2C51.656 60.8665 50.2467 57.2325 47.3951 54.3809L45.9809 55.7951C48.42 58.2342 49.656 61.3415 49.656 65.2H51.656ZM47.4066 54.3926C44.6065 51.4991 40.6449 50.12 35.68 50.12V52.12C40.2724 52.12 43.6495 53.3862 45.9694 55.7834L47.4066 54.3926ZM35.68 50.12C33.0213 50.12 30.6324 50.5187 28.5316 51.3408L29.2604 53.2032C31.085 52.4893 33.2187 52.12 35.68 52.12V50.12ZM28.5174 51.3465C26.5628 52.1461 24.8536 53.132 23.4014 54.3119L24.6626 55.8641C25.9411 54.8253 27.4746 53.9339 29.2746 53.1975L28.5174 51.3465ZM24.8925 54.5786L15.4205 38.5786L13.6995 39.5974L23.1715 55.5974L24.8925 54.5786ZM15.1059 39.9258L43.3939 21.4938L42.3021 19.8182L14.0141 38.2502L15.1059 39.9258ZM43.7318 20.1881L42.5798 18.0121L40.8122 18.9479L41.9642 21.1239L43.7318 20.1881ZM41.696 17.48H4.192V19.48H41.696V17.48ZM5.192 18.48V0.559998H3.192V18.48H5.192ZM4.192 1.56H67.168V-0.440002H4.192V1.56ZM66.168 0.559998V20.016H68.168V0.559998H66.168ZM66.6318 19.1719L33.9918 39.9079L35.0642 41.5961L67.7042 20.8601L66.6318 19.1719ZM34.7932 39.7878L24.5532 36.9718L24.0228 38.9002L34.2628 41.7162L34.7932 39.7878ZM24.5753 38.8938C26.2292 38.3977 27.9701 38.0242 29.7991 37.7748L29.5289 35.7932C27.6033 36.0558 25.7602 36.4503 24.0007 36.9782L24.5753 38.8938ZM29.8353 37.7692C31.7355 37.4388 33.7684 37.272 35.936 37.272V35.272C33.6663 35.272 31.5179 35.4466 29.4927 35.7988L29.8353 37.7692ZM35.936 37.272C43.0824 37.272 49.1624 38.4493 54.2068 40.7648L55.0412 38.9472C49.675 36.484 43.2962 35.272 35.936 35.272V37.272ZM54.2068 40.7648C59.2583 43.0835 63.1143 46.3352 65.8164 50.5113L67.4956 49.4247C64.5657 44.8968 60.4004 41.4072 55.0412 38.9472L54.2068 40.7648ZM65.8291 50.5303C68.6056 54.6134 70.008 59.4046 70.008 64.944H72.008C72.008 59.0487 70.5091 53.8559 67.4829 49.4057L65.8291 50.5303ZM70.008 64.944V66.48H72.008V64.944H70.008ZM70.008 66.48C70.008 72.0187 68.6056 76.949 65.8143 81.3L67.4977 82.38C70.5091 77.6857 72.008 72.3759 72.008 66.48H70.008ZM65.8071 81.3114C63.0992 85.6605 59.1931 89.1254 54.0488 91.6976L54.9432 93.4864C60.3802 90.7679 64.5808 87.0648 67.5049 82.3686L65.8071 81.3114ZM54.0547 91.6946C49.0181 94.1716 42.9051 95.432 35.68 95.432V97.432C43.1323 97.432 49.5632 96.1324 54.9373 93.4893L54.0547 91.6946Z" fill="url(#paint1_linear_0_732)" mask="url(#path-1-outside-1_0_732)"/>
<defs>
<linearGradient id="paint0_linear_0_732" x1="36.5" y1="-14" x2="36.8395" y2="73.0016" gradientUnits="userSpaceOnUse">
<stop stop-color="#FDBC14"/>
<stop offset="1" stop-color="#FDBC14" stop-opacity="0"/>
</linearGradient>
<linearGradient id="paint1_linear_0_732" x1="36.5" y1="-14" x2="36.5" y2="37" gradientUnits="userSpaceOnUse">
<stop stop-color="#FDBC14"/>
<stop offset="0.61851" stop-color="#292929" stop-opacity="0"/>
</linearGradient>
</defs>
</svg>
