<svg width="160" height="99" viewBox="0 0 160 99" fill="none" xmlns="http://www.w3.org/2000/svg">
<g clip-path="url(#clip0_0_915)">
<mask id="mask0_0_915" style="mask-type:luminance" maskUnits="userSpaceOnUse" x="30" y="0" width="100" height="99">
<path d="M30.7695 0.460938H129.231V98.9225H30.7695V0.460938Z" fill="white"/>
</mask>
<g mask="url(#mask0_0_915)">
<path d="M33.2917 29.0058L65.498 22.8965C66.2512 22.7538 66.9637 22.4466 67.5845 21.9967C68.2053 21.5469 68.7192 20.9656 69.0895 20.2943L78.5652 3.15264C80.4548 -0.270073 85.2934 -0.466996 87.4643 2.78223L98.2857 19.0167C99.139 20.2943 100.508 21.1312 102.037 21.3071L124.598 23.8671C128.64 24.3242 130.623 29.0316 128.122 32.2433L115.744 48.1542C115.23 48.815 114.884 49.5896 114.733 50.4126C114.582 51.2356 114.631 52.0828 114.876 52.8827L123.386 80.6137C123.54 81.1149 123.554 81.6488 123.424 82.157C123.295 82.6651 123.028 83.1279 122.654 83.4945C122.279 83.8611 121.81 84.1174 121.299 84.2354C120.788 84.3533 120.255 84.3283 119.757 84.163L92.1271 75.0436C91.3864 74.7993 90.6003 74.7241 89.8267 74.8235C89.053 74.9229 88.3115 75.1944 87.6565 75.618L52.8105 98.2126C49.6574 100.257 45.5689 97.6031 46.1597 93.8896L52.283 55.3795C52.4225 54.5044 52.3366 53.6082 52.0335 52.7755C51.7303 51.9428 51.22 51.2011 50.5506 50.6205L31.8405 34.3907C29.883 32.6958 30.7504 29.4911 33.294 29.0082L33.2917 29.0058Z" fill="url(#paint0_linear_0_915)"/>
<path d="M104.487 65.7733L85.2186 68.0872L81.5005 77.4996L64.176 79.5814L91.1286 22.0236L108.924 20.1533L123.077 71.8456L106.186 74.5387L104.482 65.778L104.487 65.7733ZM102.33 54.2861L98.5367 35.2104L90.273 55.7302L102.33 54.2861Z" fill="url(#paint1_linear_0_915)"/>
<path d="M63.6808 79.5823C63.4755 79.5818 63.2735 79.5306 63.0928 79.4332C62.912 79.3359 62.7581 79.1955 62.6446 79.0244C62.5147 78.8287 62.4379 78.6026 62.4219 78.3683C62.4059 78.134 62.4511 77.8996 62.5532 77.6881L89.1613 22.6504C89.253 22.4584 89.3914 22.2923 89.5638 22.1674C89.7362 22.0425 89.9371 21.9628 90.1482 21.9354L108.42 19.8091C109.029 19.7388 109.601 20.1326 109.77 20.7445L123.906 71.0443C124.012 71.4147 123.953 71.8179 123.747 72.1344C123.648 72.2919 123.515 72.4253 123.358 72.5251C123.202 72.6249 123.024 72.6884 122.84 72.7111L105.295 74.7507C104.978 74.7836 104.66 74.6957 104.405 74.5045C104.15 74.3132 103.976 74.0328 103.919 73.7192L102.472 66.5057L85.3283 68.4984L81.9478 76.7949C81.8642 77.0064 81.7252 77.1914 81.5453 77.3304C81.3654 77.4695 81.1513 77.5574 80.9257 77.5849L63.8238 79.5729C63.7769 79.5776 63.7277 79.5823 63.6808 79.5823ZM91.1094 24.4579L65.8493 76.7058L79.9082 75.0695L83.2911 66.7753C83.375 66.5643 83.5141 66.3797 83.694 66.2411C83.8739 66.1025 84.0878 66.0149 84.3132 65.9876L103.333 63.7746C103.65 63.7417 103.968 63.8299 104.223 64.0216C104.479 64.2133 104.652 64.4943 104.709 64.8084L106.155 72.0195L121.065 70.2847L107.644 22.5379L91.1047 24.4603V24.4579H91.1094ZM89.4426 56.7791C89.2441 56.7772 89.049 56.7285 88.873 56.6368C88.697 56.5451 88.5451 56.4131 88.4298 56.2516C88.2972 56.0658 88.2145 55.849 88.1894 55.622C88.1644 55.3951 88.1979 55.1655 88.2868 54.9552L96.4451 35.3332C96.5466 35.0824 96.726 34.8709 96.9569 34.7299C97.1878 34.5889 97.458 34.5259 97.7274 34.5502C97.9982 34.5809 98.252 34.6972 98.452 34.8824C98.6519 35.0676 98.7874 35.3118 98.8386 35.5794L102.583 53.8182C102.62 53.9966 102.621 54.1807 102.584 54.3593C102.548 54.5379 102.476 54.7072 102.372 54.8567C102.27 55.0034 102.139 55.127 101.987 55.2195C101.835 55.312 101.665 55.3714 101.488 55.3936L89.5856 56.7767C89.5388 56.7814 89.4919 56.7837 89.4449 56.7838L89.4426 56.7791ZM97.1953 40.1391L91.461 53.9167L99.8232 52.9438L97.1953 40.1391Z" fill="white"/>
</g>
</g>
<defs>
<linearGradient id="paint0_linear_0_915" x1="80" y1="89.1916" x2="80" y2="4.58032" gradientUnits="userSpaceOnUse">
<stop stop-color="#F97605"/>
<stop offset="0.49" stop-color="#FFCE2F"/>
<stop offset="0.61" stop-color="#FECE31"/>
<stop offset="0.69" stop-color="#FED03A"/>
<stop offset="0.76" stop-color="#FDD34A"/>
<stop offset="0.82" stop-color="#FCD760"/>
<stop offset="0.88" stop-color="#FBDD7C"/>
<stop offset="0.93" stop-color="#FAE39E"/>
<stop offset="0.99" stop-color="#F8EBC6"/>
<stop offset="1" stop-color="#F8EED2"/>
</linearGradient>
<linearGradient id="paint1_linear_0_915" x1="94.127" y1="78.1771" x2="92.4719" y2="24.0702" gradientUnits="userSpaceOnUse">
<stop offset="0.44" stop-color="#124B89"/>
<stop offset="0.56" stop-color="#307EB3"/>
</linearGradient>
<clipPath id="clip0_0_915">
<rect width="160" height="98.4615" fill="white" transform="translate(0 0.460938)"/>
</clipPath>
</defs>
</svg>
