<svg width="768" height="38" viewBox="0 0 768 38" fill="none" xmlns="http://www.w3.org/2000/svg">
<path d="M0 38H384H768L672 22.5L624 16L576 11L528 7L480 4.5L456 3.5L432 2.5L384 2H360L335.5 2.5L288 4L240 7L192 11L168 13.5L144 16.5L96 22.5L48 30L0 38Z" fill="#202020"/>
<g clip-path="url(#clip0_179_1439)">
<path d="M0 38V38C253.666 -10.8836 514.334 -10.8836 768 38V38" stroke="url(#paint0_linear_179_1439)" stroke-width="2"/>
</g>
<defs>
<linearGradient id="paint0_linear_179_1439" x1="-4.67166" y1="37847.4" x2="766.802" y2="37847.4" gradientUnits="userSpaceOnUse">
<stop stop-color="#151517"/>
<stop offset="0.473958" stop-color="#FF9A02"/>
<stop offset="1" stop-color="#151517"/>
</linearGradient>
<clipPath id="clip0_179_1439">
<rect width="768" height="37" fill="white" transform="matrix(-1 0 0 1 768 1)"/>
</clipPath>
</defs>
</svg>
