<svg width="390" height="38" viewBox="0 0 390 38" fill="none" xmlns="http://www.w3.org/2000/svg">
<path d="M0 38.0001H195H390L365.5 30L341.25 22.9076L317 16.5L292.5 11.5695L268 7.5L243.75 5.16108L219.5 3.5L195 2.69629L170.5 3.5L146.5 5L134 6L122 8L97.5 11.5695L73 16.5L48.75 22.9076L24.5 30L0 38.0001Z" fill="#202020"/>
<g clip-path="url(#clip0_179_1417)">
<path d="M0 38V38C125.629 -9.67462 264.371 -9.67462 390 38V38" stroke="url(#paint0_linear_179_1417)" stroke-width="2"/>
</g>
<defs>
<linearGradient id="paint0_linear_179_1417" x1="-2.37233" y1="37847.4" x2="389.392" y2="37847.4" gradientUnits="userSpaceOnUse">
<stop stop-color="#151517"/>
<stop offset="0.473958" stop-color="#FF9A02"/>
<stop offset="1" stop-color="#151517"/>
</linearGradient>
<clipPath id="clip0_179_1417">
<rect width="390" height="37" fill="white" transform="matrix(-1 0 0 1 390 1)"/>
</clipPath>
</defs>
</svg>
