<svg width="160" height="99" viewBox="0 0 160 99" fill="none" xmlns="http://www.w3.org/2000/svg">
<path d="M50.4281 39.2781H40.8027V71.9245H50.4281V39.2781Z" fill="url(#paint0_linear_0_903)"/>
<path d="M98.3344 21.9246C93.0174 21.9246 88.709 26.1776 88.709 31.4208V71.9214H98.3344V35.5508C98.3344 33.2721 100.21 31.4239 102.517 31.4239H107.726L110.586 21.9246H98.3344Z" fill="#1A68EE"/>
<path d="M135.705 30.7537H126.08V39.5057H135.705V30.7537Z" fill="url(#paint1_linear_0_903)"/>
<path d="M135.712 39.5054V57.7568H126.087V49.0047H117.218V39.5054H135.712Z" fill="#1A68EE"/>
<path d="M144.586 39.5054H135.714V49.0016H144.586V39.5054Z" fill="url(#paint2_linear_0_903)"/>
<path d="M110.599 39.5054H98.3447V49.0016H110.596V39.5054H110.599Z" fill="url(#paint3_linear_0_903)"/>
<path d="M88.7032 39.5055H86.0801V49.0018H88.7063L88.7032 39.5055ZM69.311 21.9246C63.997 21.9246 59.6855 26.1776 59.6855 31.4208V71.9214H69.311V35.5508C69.311 33.2721 71.1868 31.4239 73.4963 31.4239H78.7027L81.5626 21.9246H69.311Z" fill="#1A68EE"/>
<path d="M81.5633 39.5054H69.3086V49.0016H81.5633V39.5054Z" fill="url(#paint4_linear_0_903)"/>
<path d="M59.6829 39.5054H57.0566V49.0016H59.6829V39.5054Z" fill="#1A68EE"/>
<path d="M31.9655 48.4115C33.8936 48.4047 35.7457 49.1621 37.1165 50.518C38.4911 51.8741 39.2507 53.6824 39.2507 55.6013C39.2507 57.5202 38.4911 59.3285 37.1165 60.6846C35.745 62.0412 33.8916 62.7988 31.9625 62.7912C30.0334 62.7988 28.1799 62.0412 26.8084 60.6846C26.1316 60.0225 25.5941 59.2317 25.2276 58.3587C24.8611 57.4856 24.6729 56.5481 24.6742 55.6013C24.6742 53.6824 25.4338 51.8741 26.8084 50.518C28.1799 49.1614 30.0364 48.4038 31.9655 48.4115ZM31.9655 39.2781C22.8229 39.2781 15.4209 46.5848 15.4209 55.6013C15.4209 64.6148 22.826 71.9245 31.9655 71.9245C41.0989 71.9245 48.504 64.6148 48.504 55.6013C48.504 46.5879 41.0989 39.2781 31.9655 39.2781Z" fill="#1C6BF5"/>
<defs>
<linearGradient id="paint0_linear_0_903" x1="36.1838" y1="41.1048" x2="43.8564" y2="53.218" gradientUnits="userSpaceOnUse">
<stop stop-color="#1053C8"/>
<stop offset="1" stop-color="#1C6BF5"/>
</linearGradient>
<linearGradient id="paint1_linear_0_903" x1="130.893" y1="39.6595" x2="130.893" y2="31.1996" gradientUnits="userSpaceOnUse">
<stop stop-color="#1053C8"/>
<stop offset="1" stop-color="#1C6BF5"/>
</linearGradient>
<linearGradient id="paint2_linear_0_903" x1="135.409" y1="44.1428" x2="144.961" y2="44.3734" gradientUnits="userSpaceOnUse">
<stop stop-color="#1053C8"/>
<stop offset="1" stop-color="#1C6BF5"/>
</linearGradient>
<linearGradient id="paint3_linear_0_903" x1="97.9696" y1="44.1028" x2="111.07" y2="44.4165" gradientUnits="userSpaceOnUse">
<stop stop-color="#1053C8"/>
<stop offset="1" stop-color="#1C6BF5"/>
</linearGradient>
<linearGradient id="paint4_linear_0_903" x1="68.9334" y1="44.1028" x2="82.0338" y2="44.4165" gradientUnits="userSpaceOnUse">
<stop stop-color="#1053C8"/>
<stop offset="1" stop-color="#1C6BF5"/>
</linearGradient>
</defs>
</svg>
