<svg width="160" height="47" viewBox="0 0 160 47" fill="none" xmlns="http://www.w3.org/2000/svg">
<path fill-rule="evenodd" clip-rule="evenodd" d="M84.7962 6.39771V8.24146H86.8899H88.9835V6.39771V4.55396H86.8899H84.7962V6.39771ZM62.4614 6.47598C62.4014 6.63237 62.3524 12.3029 62.3524 19.0772V31.394L68.6752 31.3323C74.736 31.2733 75.0383 31.2552 75.9738 30.8965C78.1827 30.0494 79.4626 28.8488 80.2021 26.9304C80.4475 26.2938 80.5252 25.6693 80.5252 24.3324C80.5252 22.6903 80.4894 22.4995 79.9884 21.483C79.496 20.4836 79.0968 19.962 78.3287 19.314C77.94 18.986 76.9027 18.4659 76.6375 18.4659C76.2637 18.4659 76.4032 18.0253 76.84 17.8261C77.5003 17.5251 78.7077 16.3313 79.1287 15.5635C79.4638 14.9522 79.5132 14.6257 79.5134 13.0185C79.5135 11.3187 79.4754 11.0976 79.025 10.187C78.4175 8.95918 77.5757 8.13653 76.2165 7.44261C74.4749 6.55359 73.1006 6.36888 67.528 6.27518C62.9744 6.19842 62.5616 6.21484 62.4614 6.47598ZM73.0988 10.0956C74.8576 10.7753 75.333 11.4786 75.333 13.4016C75.333 14.1656 75.2576 14.8444 75.1655 14.9101C75.0733 14.976 74.9154 15.1807 74.8144 15.3651C74.7134 15.5494 74.3114 15.9266 73.9212 16.2031L73.2115 16.706L69.9593 16.7606L66.7071 16.8154V13.2826V9.74999H69.4558C71.831 9.74999 72.326 9.79692 73.0988 10.0956ZM101.699 12.5922C100.615 12.7887 99.6533 13.3228 98.6595 14.2814C98.1872 14.737 97.7578 15.0667 97.7052 15.0141C97.6524 14.9614 97.5717 14.4532 97.5256 13.8847L97.4418 12.8508H95.5157H93.5895L93.5463 22.1115L93.503 31.3722H95.6819H97.8606V24.5942V17.8161L98.3212 17.3305C99.2948 16.304 99.9802 16.0357 101.629 16.0357C102.954 16.0355 103.21 16.0855 103.746 16.448C104.967 17.2747 104.963 17.2487 105.023 24.7095L105.077 31.3722H107.175H109.272L109.214 24.2067C109.156 17.0628 109.155 17.0382 108.748 16.0355C108.297 14.9267 108.238 14.8344 107.446 14.0213C106.277 12.8202 103.817 12.2087 101.699 12.5922ZM119.699 12.5947C117.479 12.8487 115.057 14.6225 114.036 16.7423C113.314 18.2401 113.297 18.2933 113.024 19.7834C112.696 21.5723 112.7 22.6526 113.041 24.5598C113.652 27.9728 115.525 30.3489 118.444 31.4143C119.195 31.688 119.787 31.7567 121.393 31.7567C122.999 31.7567 123.592 31.688 124.342 31.4143C127.143 30.3921 128.967 28.1964 129.697 24.9656C130.548 21.1992 129.632 17.2177 127.367 14.8354C125.51 12.8827 123.168 12.1982 119.699 12.5947ZM141.636 12.5902C140.568 12.7587 139.276 13.4486 138.442 14.2958C138.093 14.6503 137.754 14.9417 137.69 14.9432C137.625 14.9447 137.55 14.4747 137.522 13.8984L137.472 12.8508L135.504 12.8036L133.536 12.7565V22.0642V31.3722H135.63H137.724V24.6515C137.724 18.0854 137.732 17.9197 138.077 17.4349C138.271 17.162 138.742 16.7381 139.123 16.4929C139.733 16.1012 139.99 16.0462 141.241 16.0412C142.481 16.0362 142.737 16.0875 143.228 16.4379C143.546 16.6646 143.966 17.2135 144.19 17.6951C144.586 18.5475 144.587 18.566 144.589 24.9609L144.591 31.3722H146.684H148.778V24.9961C148.778 19.0454 148.799 18.5787 149.098 17.9983C149.397 17.4195 149.747 16.9996 150.348 16.5021C150.771 16.1523 152.109 15.9028 152.999 16.0082C154.199 16.1505 154.884 16.6738 155.302 17.7661C155.626 18.6134 155.645 19.017 155.645 25.0178V31.3722H157.739H159.832V24.7866C159.832 19.395 159.786 18.0201 159.574 17.2021C158.662 13.678 156.363 12.1251 152.725 12.5771C151.248 12.7607 149.865 13.56 148.868 14.8072C148.441 15.3409 148.172 15.559 148.114 15.4175C147.897 14.8838 147.031 13.7637 146.626 13.4905C145.35 12.6318 143.495 12.297 141.636 12.5902ZM84.7962 22.0696V31.3722H86.8899H88.9835V22.0696V12.767H86.8899H84.7962V22.0696ZM123.097 16.2078C125.189 17.0688 126.392 21.0356 125.569 24.3607C124.866 27.2028 123.667 28.3551 121.414 28.3551C119.463 28.3551 118.462 27.65 117.604 25.6711C117.238 24.8247 117.207 24.5379 117.217 22.0696C117.227 19.5512 117.254 19.3316 117.658 18.4659C118.355 16.9748 119.21 16.2199 120.492 15.9614C121.326 15.7935 122.318 15.8875 123.097 16.2078ZM74.3831 20.4786C75.2782 20.8851 75.6472 21.3138 76.0828 22.4531C76.8987 24.5867 76.123 26.8711 74.3335 27.6054C73.344 28.0114 71.4634 28.2113 69.1358 28.1577L66.7909 28.1037L66.746 24.1229L66.7011 20.142L70.1796 20.1457C73.2745 20.1491 73.7379 20.1858 74.3831 20.4786ZM136.886 38.8406V43.7949L137.598 43.7433L138.31 43.6918L138.394 42.2671C138.508 40.3218 138.781 40.3285 140.115 42.309L141.103 43.7756H141.926C142.415 43.7756 142.748 43.7005 142.748 43.5902C142.748 43.4883 142.522 43.1191 142.246 42.7699C141.97 42.4208 141.743 42.0842 141.743 42.0222C141.743 41.8928 140.892 40.7244 140.689 40.5759C140.287 40.2812 140.701 39.4078 142.104 37.5932C142.566 36.9963 142.494 36.9034 141.571 36.9034H140.729L139.938 38.1515C139.346 39.0859 139.052 39.4019 138.77 39.4086C138.394 39.4176 138.394 39.4109 138.394 36.652V33.8864H137.64H136.886V38.8406ZM143.753 34.5568V35.2273H144.507H145.261V34.5568V33.8864H144.507H143.753V34.5568ZM114.442 36.0548C114.442 36.8657 114.431 36.8833 113.898 36.9348C113.416 36.9812 113.354 37.0452 113.354 37.4901C113.354 37.9349 113.416 37.999 113.898 38.0454L114.442 38.098L114.448 40.392C114.455 42.8904 114.564 43.2909 115.351 43.6993C115.855 43.961 116.307 44 116.922 43.8353C117.235 43.7511 117.298 43.6346 117.257 43.2143C117.215 42.7926 117.106 42.6682 116.665 42.5423C116 42.3527 115.911 41.9919 115.983 39.7529L116.033 38.1605L116.62 38.0767C117.135 38.0032 117.212 37.9282 117.258 37.4589C117.307 36.9505 117.279 36.9224 116.671 36.8723C116.038 36.82 116.033 36.8143 115.982 36.0235L115.931 35.2273H115.187H114.442V36.0548ZM71.2222 36.9621C70.8038 37.0759 70.2903 37.3404 70.0813 37.5496C69.0914 38.5402 68.7643 40.595 69.3793 41.9598C69.8027 42.8998 70.1628 43.2894 70.942 43.6499C72.3524 44.3026 73.8986 43.847 74.7687 42.5224C75.2695 41.7599 75.3221 41.5608 75.3273 40.4106C75.3335 39.0209 75.0176 38.1612 74.2443 37.4644C73.6014 36.8852 72.2997 36.6686 71.2222 36.9621ZM86.3455 36.9857C86.0461 37.116 85.8012 37.3982 85.8012 37.3982C85.351 37.7082 85.4348 37.6244 85.4176 37.2387C85.348 36.972 85.1892 36.9034 84.641 36.9034H83.9519L83.9971 40.2976L84.0425 43.6918H84.7962H85.5499L85.6337 41.308C85.729 38.5972 85.8709 38.2444 86.8663 38.2444C87.3893 38.2444 87.4399 38.1973 87.533 37.6227C87.6774 36.7321 87.3421 36.5523 86.3455 36.9857ZM94.2835 36.9081C94.0202 36.9871 93.6589 37.1839 93.4807 37.3453C93.1698 37.6267 93.1524 37.6237 93.0603 37.2712C92.9822 36.9722 92.8425 36.9034 92.3138 36.9034H91.6634V41.6804V46.4574H92.5009H93.3383V44.8514V43.2454L93.9024 43.5942C94.2126 43.7862 94.6829 43.9432 94.9476 43.9432C95.6286 43.9432 96.8402 43.4112 96.9518 43.0633C97.0034 42.902 97.107 42.7699 97.1821 42.7699C97.3879 42.7699 97.6936 41.3861 97.6891 40.4748C97.6787 38.4606 97.0225 37.2373 95.7847 36.9254C94.9362 36.7115 94.9387 36.7117 94.2835 36.9081ZM101.42 36.9857C101.12 37.116 100.875 37.3015 100.875 37.3982C100.875 37.7076 100.583 37.586 100.492 37.2387C100.422 36.9723 100.263 36.9034 99.7187 36.9034H99.033V40.3395V43.7756H99.7867H100.54V41.3925C100.54 39.0209 100.543 39.0075 100.985 38.6268C101.25 38.3992 101.649 38.2444 101.972 38.2444C102.473 38.2444 102.519 38.1969 102.59 37.6158C102.698 36.7233 102.396 36.5608 101.42 36.9857ZM105.816 36.8181C105.724 36.849 105.456 36.9163 105.22 36.9678C103.239 37.4006 102.516 41.3492 104.118 42.992C105.016 43.9141 106.472 44.1749 107.659 43.6264C108.52 43.2285 109.007 42.69 109.328 41.7803C110.078 39.6535 109.057 37.3089 107.207 36.912C106.377 36.734 106.121 36.7165 105.816 36.8181ZM121.187 36.8783C120.982 36.9381 120.669 37.1125 120.491 37.2655C120.188 37.527 120.163 37.5238 120.082 37.2134C120.01 36.9376 119.876 36.8915 119.271 36.9351L118.546 36.9872V40.3395V43.6918L119.341 43.7429L120.137 43.794V41.3836C120.137 39.0807 120.154 38.957 120.525 38.6087C120.749 38.3977 121.129 38.2444 121.427 38.2444C121.887 38.2444 121.954 38.179 122.057 37.6332C122.137 37.2051 122.105 36.98 121.95 36.8815C121.704 36.7254 121.711 36.7254 121.187 36.8783ZM124.84 36.9143C123.917 37.1001 123.152 37.7931 123.152 38.4433C123.152 38.8779 123.202 38.9148 123.792 38.9148C124.265 38.9148 124.526 38.806 124.795 38.4958C125.505 37.679 127.004 38.1532 127.004 39.1947C127.004 39.628 126.824 39.6899 125.208 39.8102C123.833 39.9128 123.107 40.3586 122.834 41.2684C122.426 42.633 123.409 43.9432 124.84 43.9432C125.398 43.9432 126.669 43.3584 126.669 43.1018C126.669 42.7629 126.972 42.954 127.073 43.3566C127.163 43.7144 127.274 43.7756 127.835 43.7756C128.196 43.7756 128.521 43.7191 128.556 43.6499C128.592 43.5807 128.57 42.2854 128.507 40.7711L128.392 38.0182L127.784 37.4608C127.405 37.1131 127.002 36.9026 126.714 36.9011C126.459 36.8999 126.1 36.8687 125.915 36.832C125.731 36.7953 125.247 36.8324 124.84 36.9143ZM131.947 36.9259C131.121 37.1193 130.237 37.9507 130.018 38.7398C129.806 39.5038 129.806 41.1763 130.019 41.9414C130.313 43.0024 131.672 43.9432 132.909 43.9432C133.698 43.9432 134.89 43.2899 135.341 42.6107C135.876 41.8056 135.777 41.5237 134.937 41.4622C134.33 41.4178 134.235 41.4597 134.147 41.8107C133.983 42.4642 132.894 42.8083 132.187 42.4297C131.37 41.9922 131.053 39.8159 131.652 38.7616C132.198 37.8018 133.707 37.8989 134.091 38.9185C134.26 39.3652 134.355 39.4176 134.997 39.4176C135.808 39.4176 135.868 39.2748 135.466 38.3106C135.136 37.5198 134.624 37.1252 133.654 36.9122C132.753 36.7147 132.853 36.7139 131.947 36.9259ZM149.678 36.9127C149.391 36.999 149.061 37.1832 148.946 37.3218C148.663 37.6634 148.499 37.6388 148.394 37.2387C148.325 36.9723 148.166 36.9034 147.621 36.9034H146.936V40.3487V43.794L147.731 43.7429L148.527 43.6918L148.611 41.1434C148.662 39.5834 148.768 38.5219 148.883 38.4064C149.203 38.0881 150.331 38.0229 150.704 38.3013C151.007 38.5273 151.047 38.8017 151.123 41.1218L151.207 43.6918H151.96H152.714V41.01C152.714 38.5031 152.689 38.2878 152.329 37.7083C152.117 37.3674 151.816 37.0508 151.659 37.0048C150.978 36.805 150.163 36.7672 149.678 36.9127ZM156.011 36.9016C155.233 37.086 154.699 37.6483 154.307 38.6972C153.578 40.6474 154.17 42.932 155.595 43.6668C156.31 44.0352 157.025 44.0153 157.829 43.6046L158.493 43.2659V43.7496C158.493 44.0156 158.336 44.432 158.145 44.6749C157.837 45.0676 157.683 45.1165 156.755 45.1165C156.167 45.1165 155.624 45.0287 155.511 44.9154C155.246 44.6495 155.019 44.8961 154.948 45.5297C154.866 46.2563 155.401 46.4814 157.069 46.4216C158.167 46.3823 158.51 46.3011 158.972 45.9715C159.921 45.2942 160 44.8889 160 40.6801V36.9034H159.33C158.756 36.9034 158.66 36.9551 158.66 37.2646C158.66 37.5935 158.634 37.6032 158.367 37.3723C158.058 37.1049 157.064 36.7239 156.751 36.7529C156.649 36.7625 156.317 36.8294 156.011 36.9016ZM62.3524 37.0714C62.3524 37.5062 62.8748 38.7472 62.8748 38.7472C62.8748 38.7472 64.2626 42.7798 64.5194 43.2728C64.6698 43.5616 64.4274 44.3993 64.075 44.8081C63.943 44.9611 63.6342 45.1368 63.3885 45.1985C62.8662 45.3297 62.6934 45.5527 62.6899 46.1004C62.6875 46.4811 62.728 46.4948 63.6586 46.4274C64.3594 46.3766 64.7287 46.2583 64.9845 46.0024C65.3366 45.65 66.0362 44.2407 66.0382 43.88C66.0389 43.7764 66.1494 43.4806 66.2839 43.2223C66.4186 42.9642 66.6006 42.5116 66.6887 42.2166C66.7768 41.9218 67.126 40.9262 67.4649 40.0043C67.8037 39.0824 68.1839 38.0037 68.3097 37.6073L68.5387 36.8863L67.6811 36.9368L66.8235 36.9872L66.5145 37.9091C66.3447 38.4162 66.1352 39.095 66.0491 39.4176C65.7471 40.5494 65.4131 41.3036 65.2969 41.1156C65.2332 41.0123 64.8981 40.0413 64.552 38.9576L63.9231 36.9872L63.1377 36.9361C62.6425 36.9039 62.3524 36.9539 62.3524 37.0714ZM76.5928 39.3757C76.5958 41.4505 76.6483 41.962 76.9181 42.5569C77.2886 43.3737 78.0956 43.9417 78.8865 43.9426C79.4548 43.9432 80.6089 43.4736 80.6089 43.2418C80.6089 43.1667 80.722 43.1052 80.8602 43.1052C81.0022 43.1052 81.1114 43.2553 81.1114 43.4504C81.1114 43.7471 81.2002 43.7885 81.7395 43.7438L82.3676 43.6918L82.413 40.2882L82.4584 36.8848L81.6593 36.936L80.8602 36.9872L80.814 39.5413L80.7677 42.0955L80.278 42.3489C79.6514 42.673 79.106 42.6707 78.6364 42.3413C78.279 42.0909 78.2641 41.9768 78.2641 39.4919V36.9034H77.4266H76.5891L76.5928 39.3757ZM143.753 40.3395V43.7756H144.507H145.261V40.3395V36.9034H144.507H143.753V40.3395ZM73.1881 38.4817C73.6358 38.8674 73.658 38.9554 73.658 40.34C73.658 41.7247 73.6358 41.8125 73.1881 42.1979C72.5382 42.7572 71.8302 42.7265 71.2165 42.1124C70.7665 41.662 70.7269 41.5256 70.7269 40.4201C70.7269 39.164 71.0376 38.3258 71.555 38.186C72.2148 38.0078 72.7507 38.1049 73.1881 38.4817ZM95.1549 38.1865C95.6371 38.3158 96.1857 39.5026 96.1857 40.4168C96.1857 41.2197 95.7822 42.2022 95.3594 42.4287C94.8881 42.6811 94.1386 42.6414 93.7107 42.3413C93.3683 42.1015 93.3383 41.9461 93.3383 40.4138C93.3383 38.9706 93.3832 38.7023 93.6733 38.412C94.0165 38.0685 94.4615 38.0008 95.1549 38.1865ZM107.082 38.2494C107.599 38.5263 107.91 39.3248 107.909 40.373C107.908 41.9433 107.134 42.8336 106.026 42.5381C105.365 42.3621 105.197 42.1596 104.965 41.2653C104.431 39.2039 105.642 37.4782 107.082 38.2494ZM158.051 38.4242C158.472 38.7552 158.493 38.8452 158.493 40.3395C158.493 41.8338 158.472 41.9238 158.051 42.2548C157.411 42.7589 156.724 42.702 156.117 42.0948C155.626 41.6037 155.612 41.5455 155.669 40.2891C155.716 39.2732 155.802 38.9145 156.064 38.6404C156.685 37.9916 157.403 37.9135 158.051 38.4242ZM126.92 41.3385C126.92 41.7156 126.784 41.9268 126.351 42.2185C125.382 42.8723 124.324 42.6429 124.324 41.7788C124.324 41.0794 124.874 40.7596 125.999 40.805C126.9 40.8415 126.92 40.8534 126.92 41.3385Z" fill="#F1F1F1"/>
<path d="M9.72161 46.8431V22.2039L7.30601 21.9818C6.54347 21.9116 5.80046 22.2487 5.35099 22.8687L4.85205 23.5569C3.66046 25.2004 2.08818 26.5306 0.269926 27.4335C0.104574 27.5156 0 27.6843 0 27.8689V44.4127C0 45.755 1.08813 46.8431 2.4304 46.8431H9.72161Z" fill="#E02E27"/>
<path d="M20.2812 19.3545C17.5324 23.9136 12.6548 23.3772 10.5596 22.5392V46.8432H20.2812V19.3545Z" fill="#F8E805"/>
<path d="M30.8409 17.0077C26.9523 13.8565 22.7396 16.4769 21.1193 18.181L21.2031 46.843H30.8409V17.0077Z" fill="#46AC3C"/>
<path d="M41.4006 16.5051C38.0769 20.5949 33.5069 19.0473 31.679 17.7622V46.8432H41.4006V16.5051Z" fill="#EF741D"/>
<path d="M51.9603 0.0788574C42.7248 1.8388 43.3729 14.326 42.2387 15.3317V46.7593L51.9603 46.8431V44.1613V0.0788574Z" fill="#497ABD"/>
</svg>
