<svg width="160" height="41" viewBox="0 0 160 41" fill="none" xmlns="http://www.w3.org/2000/svg">
<mask id="path-1-outside-1_0_960" maskUnits="userSpaceOnUse" x="-0.535156" y="-0.678711" width="161" height="42" fill="black">
<rect fill="white" x="-0.535156" y="-0.678711" width="161" height="42"/>
<path d="M0.464844 2.32129H159.535V38.6004H0.464844V2.32129Z"/>
</mask>
<path d="M0.464844 2.32129H159.535V38.6004H0.464844V2.32129Z" fill="black"/>
<path d="M0.464844 2.32129V-0.00429225H-0.000272512V2.32129H0.464844ZM159.535 2.32129H160V-0.00429225H159.535V2.32129ZM159.535 38.6004V40.9259H160V38.6004H159.535ZM0.464844 38.6004H-0.000272512V40.9259H0.464844V38.6004ZM0.464844 4.64687H159.535V-0.00429225H0.464844V4.64687ZM159.069 2.32129V38.6004H160V2.32129H159.069ZM159.535 36.2748H0.464844V40.9259H159.535V36.2748ZM0.92996 38.6004V2.32129H-0.000272512V38.6004H0.92996Z" fill="#FF9700" mask="url(#path-1-outside-1_0_960)"/>
<path d="M131.628 15.4911V13.019H145.116V15.4911H139.891V29.2981H136.853V15.4911H131.628Z" fill="#FF9700"/>
<path d="M125.116 13.019V29.2981H122.093V13.019H125.116Z" fill="#FF9700"/>
<path d="M93.0229 29.2981V13.019H96.0988V20.4988H96.306L102.93 13.019H106.686L100.12 20.324L106.744 29.2981H103.046L97.9807 22.3191L96.0988 24.4494V29.2981H93.0229Z" fill="white"/>
<path d="M74.9218 29.2981H71.6276L77.6254 13.019H81.4354L87.4415 29.2981H84.1473L79.5969 16.3575H79.4638L74.9218 29.2981ZM75.0299 22.9153H84.0142V25.284H75.0299V22.9153Z" fill="white"/>
<path d="M67.209 21.1585C67.209 22.9146 66.8668 24.4187 66.1823 25.6708C65.5035 26.9176 64.5762 27.8726 63.4005 28.5358C62.2304 29.199 60.903 29.5306 59.4183 29.5306C57.9335 29.5306 56.6033 29.199 55.4277 28.5358C54.2576 27.8673 53.3303 26.9096 52.6459 25.6628C51.967 24.4107 51.6276 22.9093 51.6276 21.1585C51.6276 19.4023 51.967 17.9009 52.6459 16.6541C53.3303 15.402 54.2576 14.4443 55.4277 13.7812C56.6033 13.118 57.9335 12.7864 59.4183 12.7864C60.903 12.7864 62.2304 13.118 63.4005 13.7812C64.5762 14.4443 65.5035 15.402 66.1823 16.6541C66.8668 17.9009 67.209 19.4023 67.209 21.1585ZM64.1208 21.1585C64.1208 19.9223 63.9194 18.8798 63.5165 18.0309C63.1191 17.1767 62.5671 16.5321 61.8606 16.097C61.1541 15.6567 60.34 15.4365 59.4183 15.4365C58.4965 15.4365 57.6824 15.6567 56.9759 16.097C56.2694 16.5321 55.7147 17.1767 55.3118 18.0309C54.9144 18.8798 54.7157 19.9223 54.7157 21.1585C54.7157 22.3947 54.9144 23.4398 55.3118 24.294C55.7147 25.1429 56.2694 25.7875 56.9759 26.2279C57.6824 26.6629 58.4965 26.8805 59.4183 26.8805C60.34 26.8805 61.1541 26.6629 61.8606 26.2279C62.5671 25.7875 63.1191 25.1429 63.5165 24.294C63.9194 23.4398 64.1208 22.3947 64.1208 21.1585Z" fill="white"/>
<path d="M36.0461 29.2981V13.019H39.1638V26.826H46.7438V29.2981H36.0461Z" fill="white"/>
<path d="M28.9591 16.2759L26.7439 18.2516C26.5113 17.7865 26.4331 17.7538 26.1967 17.3824C25.9603 17.0057 25.6662 16.6865 25.3144 16.425C24.9626 16.1634 24.5613 15.9672 24.1105 15.8364C23.6652 15.7004 23.1842 15.6323 22.6675 15.6323C21.7494 15.6323 20.9359 15.8521 20.2267 16.2915C19.5176 16.7258 18.9624 17.3641 18.5611 18.2064C18.1598 19.0435 17.9591 20.0663 17.9591 21.2749C17.9591 22.5043 18.1598 23.5402 18.5611 24.3826C18.9679 25.2196 19.5231 25.8527 20.2267 26.2817C20.9359 26.7055 21.7467 26.9174 22.6592 26.9174C23.165 26.9174 23.6377 26.8546 24.0775 26.729C24.5228 26.5982 24.9213 26.4073 25.2732 26.1561C25.6305 25.905 25.9301 25.5963 26.172 25.2301C26.3522 24.9633 26.5439 24.7006 26.6562 24.4075C26.716 24.2513 26.9045 24.1605 27.0486 24.2456L29.302 25.5772C29.302 25.5772 29.4016 25.4708 29.0168 26.1405C28.6375 26.8101 28.14 27.4013 27.5243 27.914C26.9086 28.4215 26.1885 28.8191 25.3639 29.1069C24.5393 29.3894 23.624 29.5307 22.618 29.5307C21.1338 29.5307 19.8089 29.2037 18.6435 28.5497C17.4781 27.8957 16.5601 26.9514 15.8894 25.7167C15.2188 24.482 14.8834 23.0014 14.8834 21.2749C14.8834 19.5431 15.2215 18.0625 15.8977 16.833C16.5738 15.5983 17.4946 14.654 18.66 14C19.8254 13.346 21.1448 13.019 22.618 13.019C23.558 13.019 24.4321 13.1446 25.2402 13.3957C26.0483 13.6469 26.7684 14.0157 27.4006 14.5023C28.0328 14.9836 28.5523 15.5748 28.9591 16.2759Z" fill="white"/>
</svg>
