<svg width="128" height="128" viewBox="0 0 128 128" fill="none" xmlns="http://www.w3.org/2000/svg">
<rect width="128" height="128" fill="#060606"/>
<path d="M13.1279 36.1094H31.2387V75.8034H54.7591V91.9042H13.1279V36.1094Z" fill="white"/>
<path d="M61.3234 36.1094H86.8822C93.5725 36.1094 99.139 37.6504 103.582 40.7324C108.024 43.7612 110.246 48.7828 110.246 55.797C110.246 63.7146 107.11 69.2675 100.838 72.4557L114.872 91.9042H94.9576L83.7462 75.4846H79.4341V91.9042H61.3234V36.1094ZM86.4118 61.6156C88.1366 61.6156 89.4956 61.1374 90.4887 60.1809C91.4818 59.2244 91.9783 57.9491 91.9783 56.3549C91.9783 54.7608 91.4818 53.4855 90.4887 52.529C89.4956 51.5725 88.1366 51.0943 86.4118 51.0943H79.4341V61.6156H86.4118Z" fill="#FDBC14"/>
</svg>
