<svg width="51" height="51" viewBox="0 0 51 51" fill="none" xmlns="http://www.w3.org/2000/svg">
<rect x="0.5" y="0.460938" width="50" height="50" rx="10" fill="url(#paint0_radial_0_980)"/>
<path d="M25.5 15.22C28.8133 15.22 29.2651 15.22 30.6205 15.22C31.8253 15.22 32.4277 15.5212 32.8795 15.6718C33.4819 15.973 33.9337 16.1236 34.3855 16.5754C34.8374 17.0272 35.1386 17.479 35.2892 18.0814C35.4398 18.5332 35.5904 19.1356 35.741 20.3405C35.741 21.6959 35.741 21.9971 35.741 25.4609C35.741 28.9248 35.741 29.226 35.741 30.5814C35.741 31.7862 35.4398 32.3886 35.2892 32.8405C34.988 33.4429 34.8374 33.8947 34.3855 34.3465C33.9337 34.7983 33.4819 35.0995 32.8795 35.2501C32.4277 35.4007 31.8253 35.5513 30.6205 35.7019C29.2651 35.7019 28.9639 35.7019 25.5 35.7019C22.0361 35.7019 21.7349 35.7019 20.3795 35.7019C19.1747 35.7019 18.5723 35.4007 18.1205 35.2501C17.5181 34.9489 17.0663 34.7983 16.6145 34.3465C16.1627 33.8947 15.8614 33.4429 15.7108 32.8405C15.5602 32.3886 15.4096 31.7862 15.259 30.5814C15.259 29.226 15.259 28.9248 15.259 25.4609C15.259 21.9971 15.259 21.6959 15.259 20.3405C15.259 19.1356 15.5602 18.5332 15.7108 18.0814C16.012 17.479 16.1627 17.0272 16.6145 16.5754C17.0663 16.1236 17.5181 15.8224 18.1205 15.6718C18.5723 15.5212 19.1747 15.3706 20.3795 15.22C21.7349 15.22 22.1867 15.22 25.5 15.22ZM25.5 12.9609C22.0361 12.9609 21.7349 12.9609 20.3795 12.9609C19.0241 12.9609 18.1205 13.2621 17.3675 13.5633C16.6145 13.8646 15.8614 14.3164 15.1084 15.0694C14.3554 15.8224 14.0542 16.4248 13.6024 17.3284C13.3012 18.0814 13.1506 18.985 13 20.3405C13 21.6959 13 22.1477 13 25.4609C13 28.9248 13 29.226 13 30.5814C13 31.9368 13.3012 32.8405 13.6024 33.5935C13.9036 34.3465 14.3554 35.0995 15.1084 35.8525C15.8614 36.6055 16.4639 36.9067 17.3675 37.3585C18.1205 37.6597 19.0241 37.8103 20.3795 37.9609C21.7349 37.9609 22.1867 37.9609 25.5 37.9609C28.8133 37.9609 29.2651 37.9609 30.6205 37.9609C31.9759 37.9609 32.8795 37.6597 33.6325 37.3585C34.3855 37.0573 35.1386 36.6055 35.8916 35.8525C36.6446 35.0995 36.9458 34.4971 37.3976 33.5935C37.6988 32.8405 37.8494 31.9368 38 30.5814C38 29.226 38 28.7742 38 25.4609C38 22.1477 38 21.6959 38 20.3405C38 18.985 37.6988 18.0814 37.3976 17.3284C37.0964 16.5754 36.6446 15.8224 35.8916 15.0694C35.1386 14.3164 34.5361 14.0152 33.6325 13.5633C32.8795 13.2621 31.9759 13.1115 30.6205 12.9609C29.2651 12.9609 28.9639 12.9609 25.5 12.9609Z" fill="white"/>
<path d="M25.5 18.985C21.8855 18.985 19.0241 21.8465 19.0241 25.4609C19.0241 29.0754 21.8855 31.9368 25.5 31.9368C29.1145 31.9368 31.9759 29.0754 31.9759 25.4609C31.9759 21.8465 29.1145 18.985 25.5 18.985ZM25.5 29.6778C23.241 29.6778 21.2831 27.8706 21.2831 25.4609C21.2831 23.2019 23.0904 21.2441 25.5 21.2441C27.759 21.2441 29.7169 23.0513 29.7169 25.4609C29.7169 27.72 27.759 29.6778 25.5 29.6778Z" fill="white"/>
<path d="M32.1265 20.3405C32.9583 20.3405 33.6325 19.6662 33.6325 18.8344C33.6325 18.0027 32.9583 17.3284 32.1265 17.3284C31.2948 17.3284 30.6205 18.0027 30.6205 18.8344C30.6205 19.6662 31.2948 20.3405 32.1265 20.3405Z" fill="white"/>
<defs>
<radialGradient id="paint0_radial_0_980" cx="0" cy="0" r="1" gradientUnits="userSpaceOnUse" gradientTransform="translate(51.5059 1.47656) scale(115.465)">
<stop stop-color="#F9ED32"/>
<stop offset="0.36" stop-color="#EE2A7B"/>
<stop offset="0.44" stop-color="#D22A8A"/>
<stop offset="0.6" stop-color="#8B2AB2"/>
<stop offset="0.83" stop-color="#1B2AF0"/>
<stop offset="0.88" stop-color="#002AFF"/>
</radialGradient>
</defs>
</svg>
