<svg width="160" height="37" viewBox="0 0 160 37" fill="none" xmlns="http://www.w3.org/2000/svg">
<g clip-path="url(#clip0_0_924)">
<path d="M19.7639 35.7003L9.52554 22.2542V35.7003H2.10938V5.25049H9.52554V18.6126L19.6799 5.25049H28.3986L16.5986 20.1743L28.8328 35.7003H19.7639Z" fill="#62C862"/>
<path d="M51.3054 25.3778H34.5121C34.6241 26.8835 35.1143 28.032 35.9617 28.8233C36.816 29.6217 37.8595 30.0139 39.106 30.0139C40.9548 30.0139 42.2434 29.2295 42.9647 27.6678H50.857C50.451 29.2575 49.7224 30.6932 48.6653 31.9608C47.6078 33.2353 46.2841 34.2298 44.6945 34.9511C43.1047 35.6724 41.326 36.0366 39.3581 36.0366C36.9841 36.0366 34.8762 35.5324 33.0204 34.5169C31.1716 33.5085 29.722 32.0588 28.6856 30.182C27.6421 28.3051 27.1239 26.1061 27.1239 23.585C27.1239 21.0708 27.6351 18.8718 28.6645 16.9949C29.687 15.1181 31.1296 13.6685 32.9784 12.653C34.8272 11.6445 36.9561 11.1333 39.3581 11.1333C41.6971 11.1333 43.7841 11.6235 45.6049 12.611C47.4256 13.5914 48.8471 14.999 49.8765 16.8199C50.906 18.6407 51.4175 20.7697 51.4175 23.1998C51.4315 23.9001 51.3894 24.6284 51.3054 25.3778ZM43.8402 21.2599C43.8402 19.9853 43.4058 18.9769 42.5375 18.2205C41.6691 17.4712 40.5837 17.093 39.2811 17.093C38.0416 17.093 36.9911 17.4572 36.1367 18.1785C35.2824 18.8998 34.7572 19.9293 34.5541 21.2599H43.8402Z" fill="#62C862"/>
<path d="M62.3556 11.4973V35.7003H54.9395V11.4973H62.3556Z" fill="#62C862"/>
<path d="M95.242 11.147C93.2461 11.147 91.4393 11.6512 89.8218 12.6667C88.2042 13.6821 86.9225 15.1248 85.9841 17.0086C85.0457 18.8855 84.5763 21.0705 84.5763 23.5566C84.5763 26.0427 85.0457 28.2347 85.9841 30.1256C86.9225 32.0164 88.2042 33.4801 89.8218 34.5095C91.4393 35.539 93.2321 36.0503 95.2 36.0503C96.9086 36.0503 98.4005 35.7001 99.6888 35.0068C100.977 34.3135 101.979 33.403 102.7 32.2756V35.7001H110.116V11.4971H102.7V14.9217C102.007 13.7942 101.013 12.8837 99.7308 12.1904C98.4425 11.4971 96.9506 11.147 95.242 11.147ZM102.035 23.5986C102.035 25.4475 101.524 26.9111 100.494 27.9826C99.472 29.0541 98.2183 29.5863 96.7409 29.5863C95.263 29.5863 94.0163 29.0471 92.9873 27.9616C91.9578 26.8761 91.4464 25.4124 91.4464 23.5566C91.4464 21.7077 91.9578 20.2511 92.9873 19.1936C94.0093 18.1361 95.263 17.6109 96.7409 17.6109C98.2113 17.6109 99.465 18.1431 100.494 19.2146C101.524 20.2861 102.035 21.7498 102.035 23.5986Z" fill="#62C862"/>
<path d="M82.2161 31.9955C81.8098 31.1762 81.4739 30.3078 81.2007 29.4114H79.2748C78.4625 29.4114 77.8885 29.2573 77.5382 28.9352C77.1879 28.62 77.0197 28.0948 77.0197 27.3735V17.6601H81.2147H81.8448H81.8799V17.548V15.8742V11.5043H77.0197V5.60059H69.6036V11.5043H66.6553V17.6601H69.6036V27.2894C69.6036 30.2658 70.3532 32.4157 71.8587 33.7323C73.3642 35.049 75.4582 35.7072 78.1473 35.7072H84.7511C83.7637 34.6288 82.9163 33.3962 82.2161 31.9955Z" fill="#62C862"/>
<path d="M61.7402 1.38463C60.8929 0.593273 59.8634 0.194092 58.6518 0.194092C57.4331 0.194092 56.4037 0.58627 55.5563 1.37062C54.709 2.15498 54.2891 3.23347 54.2891 4.6131C54.2891 5.98571 54.709 7.07821 55.5563 7.88357C56.4037 8.68894 57.4331 9.09513 58.6448 9.09513C59.8564 9.09513 60.8929 8.69594 61.7332 7.90459C62.5805 7.11323 63.0005 6.02775 63.0005 4.64813C63.0075 3.26849 62.5875 2.18299 61.7402 1.38463Z" fill="#62C862"/>
<path d="M151.588 12.6666C149.683 11.6582 147.54 11.147 145.166 11.147C142.792 11.147 140.656 11.6512 138.744 12.6666C136.839 13.6821 135.334 15.1318 134.234 17.0296C133.135 18.9205 132.589 21.1125 132.589 23.5986C132.589 26.1127 133.128 28.3117 134.213 30.1956C135.299 32.0725 136.783 33.5221 138.681 34.5306C140.572 35.546 142.708 36.0503 145.082 36.0503C147.449 36.0503 149.599 35.546 151.525 34.5306C153.443 33.5221 154.963 32.0655 156.077 30.1746C157.19 28.2837 157.744 26.0917 157.744 23.5986C157.744 21.1125 157.197 18.9205 156.098 17.0296C154.998 15.1318 153.499 13.6821 151.588 12.6666ZM148.702 28.0666C147.708 29.1031 146.497 29.6283 145.082 29.6283C143.668 29.6283 142.484 29.1101 141.545 28.0666C140.607 27.0232 140.138 25.5385 140.138 23.5986C140.138 21.6307 140.614 20.132 141.567 19.1096C142.519 18.0801 143.724 17.5689 145.166 17.5689C146.581 17.5689 147.778 18.0871 148.744 19.1306C149.711 20.174 150.194 21.6587 150.194 23.5986C150.201 25.5385 149.704 27.0302 148.702 28.0666Z" fill="#62C862"/>
<path d="M133.016 11.7635C132.281 11.4134 131.406 11.2383 130.243 11.2383C129.122 11.2383 127.204 11.6235 125.901 12.3868C124.599 13.1572 123.513 14.2006 122.645 15.5312V11.4974H115.229V35.7004H122.645V24.4673C122.645 22.4714 123.107 21.0778 124.032 20.2794C124.956 19.488 126.342 19.0889 128.198 19.0889H128.927C129.298 17.6042 129.858 16.2105 130.607 14.9219C131.287 13.7454 132.092 12.695 133.016 11.7635Z" fill="#62C862"/>
</g>
<defs>
<clipPath id="clip0_0_924">
<rect width="160" height="36.2667" fill="white" transform="translate(0 0.327637)"/>
</clipPath>
</defs>
</svg>
