<svg width="18" height="19" viewBox="0 0 18 19" fill="none" xmlns="http://www.w3.org/2000/svg">
<path d="M8.56507 16.8605C8.692 16.9511 8.84409 16.9999 9.00007 16.9999C9.15605 16.9999 9.30813 16.9511 9.43507 16.8605C9.66307 16.6992 15.0218 12.83 15.0001 8C15.0001 4.69175 12.3083 2 9.00007 2C5.69182 2 3.00007 4.69175 3.00007 7.99625C2.97832 12.83 8.33707 16.6992 8.56507 16.8605ZM9.00007 3.5C11.4818 3.5 13.5001 5.51825 13.5001 8.00375C13.5158 11.3323 10.2091 14.321 9.00007 15.3013C7.79182 14.3203 4.48432 11.3307 4.50007 8C4.50007 5.51825 6.51832 3.5 9.00007 3.5Z" fill="#FDBC14"/>
<path d="M9 11C10.6545 11 12 9.6545 12 8C12 6.3455 10.6545 5 9 5C7.3455 5 6 6.3455 6 8C6 9.6545 7.3455 11 9 11ZM9 6.5C9.82725 6.5 10.5 7.17275 10.5 8C10.5 8.82725 9.82725 9.5 9 9.5C8.17275 9.5 7.5 8.82725 7.5 8C7.5 7.17275 8.17275 6.5 9 6.5Z" fill="#FDBC14"/>
</svg>
