<svg width="68" height="53" viewBox="0 0 68 53" fill="none" xmlns="http://www.w3.org/2000/svg">
<g clip-path="url(#clip0_0_828)">
<path d="M12.644 52.3915V48.9405C12.644 47.6204 11.8393 46.7559 10.458 46.7559C9.76739 46.7559 9.01638 46.9838 8.50007 47.7343C8.09775 47.1044 7.52109 46.7559 6.6561 46.7559C6.07944 46.7559 5.50277 46.9301 5.04681 47.56V46.8698H3.83984V52.3915H5.04681V49.3425C5.04681 48.3642 5.56312 47.9018 6.36777 47.9018C7.17241 47.9018 7.57473 48.4178 7.57473 49.3425V52.3915H8.7817V49.3425C8.7817 48.3642 9.35836 47.9018 10.1027 47.9018C10.9073 47.9018 11.3096 48.4178 11.3096 49.3425V52.3915H12.644ZM30.5473 46.8698H28.5893V45.2013H27.3824V46.8698H26.2894V47.9621H27.3824V50.4951C27.3824 51.7616 27.8987 52.5054 29.28 52.5054C29.7963 52.5054 30.373 52.3312 30.7753 52.1033L30.4266 51.0647C30.0779 51.2925 29.6756 51.3528 29.3873 51.3528C28.8106 51.3528 28.5826 51.0044 28.5826 50.4348V47.9621H30.5406V46.8698H30.5473ZM40.7931 46.7492C40.1025 46.7492 39.6398 47.0977 39.3515 47.5533V46.8631H38.1445V52.3848H39.3515V49.2755C39.3515 48.3575 39.7538 47.8348 40.5048 47.8348C40.7328 47.8348 41.0211 47.8951 41.2558 47.9487L41.6045 46.7961C41.3631 46.7492 41.0211 46.7492 40.7931 46.7492ZM25.3104 47.3255C24.7338 46.9234 23.9291 46.7492 23.0641 46.7492C21.6828 46.7492 20.7642 47.4394 20.7642 48.5317C20.7642 49.4497 21.4548 49.9724 22.6618 50.1399L23.2385 50.2003C23.8688 50.3142 24.2174 50.4884 24.2174 50.7765C24.2174 51.1786 23.7548 51.4667 22.9501 51.4667C22.1455 51.4667 21.5085 51.1786 21.1062 50.8905L20.5295 51.8085C21.1598 52.2709 22.0248 52.4987 22.8898 52.4987C24.4991 52.4987 25.4244 51.7482 25.4244 50.7162C25.4244 49.7379 24.6734 49.2219 23.5268 49.0477L22.9501 48.9874C22.4338 48.9271 22.0315 48.8131 22.0315 48.4714C22.0315 48.0693 22.4338 47.8415 23.0708 47.8415C23.7615 47.8415 24.4521 48.1296 24.8008 48.3039L25.3104 47.3255ZM57.4224 46.7492C56.7318 46.7492 56.2691 47.0977 55.9808 47.5533V46.8631H54.7738V52.3848H55.9808V49.2755C55.9808 48.3575 56.3831 47.8348 57.1341 47.8348C57.3621 47.8348 57.6504 47.8951 57.8851 47.9487L58.2338 46.8095C57.9991 46.7492 57.6571 46.7492 57.4224 46.7492ZM42.0001 49.6307C42.0001 51.2992 43.1534 52.5054 44.937 52.5054C45.7417 52.5054 46.3183 52.3312 46.895 51.8755L46.3183 50.8972C45.8557 51.2456 45.3997 51.4131 44.8767 51.4131C43.8977 51.4131 43.207 50.7229 43.207 49.6307C43.207 48.592 43.8977 47.9018 44.8767 47.8482C45.393 47.8482 45.8557 48.0224 46.3183 48.3642L46.895 47.3858C46.3183 46.9234 45.7417 46.7559 44.937 46.7559C43.1534 46.7492 42.0001 47.9621 42.0001 49.6307ZM53.1645 49.6307V46.8698H51.9575V47.56C51.5552 47.0441 50.9786 46.7559 50.2276 46.7559C48.6719 46.7559 47.4649 47.9621 47.4649 49.6307C47.4649 51.2992 48.6719 52.5054 50.2276 52.5054C51.0322 52.5054 51.6089 52.2173 51.9575 51.7013V52.3915H53.1645V49.6307ZM48.7323 49.6307C48.7323 48.6523 49.3626 47.8482 50.4019 47.8482C51.3809 47.8482 52.0715 48.5987 52.0715 49.6307C52.0715 50.609 51.3809 51.4131 50.4019 51.4131C49.3693 51.3528 48.7323 50.6023 48.7323 49.6307ZM34.2889 46.7492C32.6796 46.7492 31.5263 47.9018 31.5263 49.624C31.5263 51.3528 32.6796 52.4987 34.3493 52.4987C35.1539 52.4987 35.9585 52.2709 36.5955 51.7482L36.0189 50.8838C35.5562 51.2322 34.9796 51.46 34.4096 51.46C33.6586 51.46 32.9143 51.1116 32.74 50.1399H36.8235C36.8235 49.9657 36.8235 49.8518 36.8235 49.6776C36.8772 47.9018 35.8378 46.7492 34.2889 46.7492ZM34.2889 47.7879C35.0399 47.7879 35.5562 48.2503 35.6702 49.108H32.7936C32.9076 48.3642 33.4239 47.7879 34.2889 47.7879ZM64.2753 49.6307V44.6853H63.0683V47.56C62.666 47.0441 62.0893 46.7559 61.3383 46.7559C59.7827 46.7559 58.5757 47.9621 58.5757 49.6307C58.5757 51.2992 59.7827 52.5054 61.3383 52.5054C62.143 52.5054 62.7196 52.2173 63.0683 51.7013V52.3915H64.2753V49.6307ZM59.843 49.6307C59.843 48.6523 60.4734 47.8482 61.5127 47.8482C62.4917 47.8482 63.1823 48.5987 63.1823 49.6307C63.1823 50.609 62.4917 51.4131 61.5127 51.4131C60.4734 51.3528 59.843 50.6023 59.843 49.6307ZM19.4365 49.6307V46.8698H18.2296V47.56C17.8272 47.0441 17.2506 46.7559 16.4996 46.7559C14.9439 46.7559 13.737 47.9621 13.737 49.6307C13.737 51.2992 14.9439 52.5054 16.4996 52.5054C17.3042 52.5054 17.8809 52.2173 18.2296 51.7013V52.3915H19.4365V49.6307ZM14.9506 49.6307C14.9506 48.6523 15.5809 47.8482 16.6203 47.8482C17.5993 47.8482 18.2899 48.5987 18.2899 49.6307C18.2899 50.609 17.5993 51.4131 16.6203 51.4131C15.5809 51.3528 14.9506 50.6023 14.9506 49.6307Z" fill="white"/>
<path d="M43.0376 4.93506H24.9062V37.4887H43.0376V4.93506Z" fill="#FF5A00"/>
<path d="M26.1145 21.2116C26.1145 14.5976 29.2258 8.72754 34 4.93475C30.4864 2.17393 26.0541 0.505371 21.2196 0.505371C9.76681 0.505371 0.5 9.7662 0.5 21.2116C0.5 32.6569 9.76681 41.9177 21.2196 41.9177C26.0541 41.9177 30.4864 40.2492 34 37.4884C29.2191 33.7492 26.1145 27.8255 26.1145 21.2116Z" fill="#EB001B"/>
<path d="M67.5 21.2116C67.5 32.6569 58.2332 41.9177 46.7804 41.9177C41.9459 41.9177 37.5136 40.2492 34 37.4884C38.8346 33.6889 41.8855 27.8255 41.8855 21.2116C41.8855 14.5976 38.7742 8.72754 34 4.93475C37.5069 2.17393 41.9391 0.505371 46.7737 0.505371C58.2332 0.505371 67.5 9.82651 67.5 21.2116Z" fill="#F79E1B"/>
</g>
<defs>
<clipPath id="clip0_0_828">
<rect width="67" height="52" fill="white" transform="translate(0.5 0.505371)"/>
</clipPath>
</defs>
</svg>
