<svg width="24" height="24" viewBox="0 0 24 24" fill="none" xmlns="http://www.w3.org/2000/svg">
<path d="M12.117 15.3126C8.25856 15.3126 5.11914 12.1731 5.11914 8.31472C5.11914 4.4563 8.25856 1.31592 12.117 1.31592C15.9754 1.31592 19.1158 4.45533 19.1158 8.31472C19.1158 12.1741 15.9764 15.3126 12.117 15.3126ZM12.117 2.7359C9.04132 2.7359 6.53912 5.2381 6.53912 8.31472C6.53912 11.3914 9.04132 13.8926 12.117 13.8926C15.1926 13.8926 17.6958 11.3904 17.6958 8.31472C17.6958 5.23906 15.1936 2.7359 12.117 2.7359Z" fill="black"/>
<path d="M21.985 22.5733C21.682 22.5733 21.4018 22.3785 21.3069 22.0742C20.0498 18.0294 16.3562 15.3121 12.1172 15.3121C7.8782 15.3121 4.45028 17.8574 3.07247 21.645C2.93852 22.014 2.53314 22.203 2.16285 22.0694C1.79481 21.9354 1.60387 21.5284 1.73846 21.1598C3.31847 16.8126 7.48987 13.8921 12.1172 13.8921C16.9819 13.8921 21.2202 17.0109 22.6631 21.6527C22.7796 22.0272 22.57 22.4252 22.1959 22.5417C22.126 22.5633 22.0545 22.5736 21.985 22.5736V22.5733Z" fill="black"/>
</svg>
