<svg width="25" height="25" viewBox="0 0 25 25" fill="none" xmlns="http://www.w3.org/2000/svg">
<g clip-path="url(#clip0_57_750)">
<path d="M16.576 13.3152H0.815217C0.365216 13.3152 0 12.95 0 12.5C0 12.05 0.365216 11.6848 0.815217 11.6848H16.576C17.026 11.6848 17.3912 12.05 17.3912 12.5C17.3912 12.95 17.026 13.3152 16.576 13.3152Z" fill="black"/>
<path d="M12.2283 17.6629C12.0196 17.6629 11.811 17.5837 11.6522 17.4239C11.3337 17.1054 11.3337 16.5892 11.6522 16.2705L15.4239 12.4989L11.6522 8.72716C11.3337 8.40872 11.3337 7.89224 11.6522 7.57379C11.9708 7.25535 12.4871 7.25535 12.8055 7.57379L17.1533 11.9218C17.4717 12.2402 17.4717 12.7565 17.1533 13.0749L12.8055 17.4227C12.6457 17.5837 12.4371 17.6629 12.2283 17.6629Z" fill="black"/>
<path d="M13.0434 24.4566C8.09653 24.4566 3.72926 21.4806 1.91512 16.8739C1.74993 16.4565 1.95632 15.9826 2.37488 15.8174C2.79224 15.6544 3.26732 15.8576 3.43251 16.2784C4.99886 20.2556 8.77163 22.8262 13.0434 22.8262C18.7367 22.8262 23.3695 18.1934 23.3695 12.5C23.3695 6.80666 18.7367 2.17389 13.0434 2.17389C8.77163 2.17389 4.99886 4.74453 3.43251 8.7217C3.26612 9.14245 2.79224 9.34566 2.37488 9.18265C1.95632 9.01746 1.74993 8.54357 1.91512 8.12621C3.72926 3.51952 8.09653 0.543457 13.0434 0.543457C19.6358 0.543457 24.9999 5.90765 24.9999 12.5C24.9999 19.0924 19.6358 24.4566 13.0434 24.4566Z" fill="black"/>
</g>
<defs>
<clipPath id="clip0_57_750">
<rect width="25" height="25" fill="white"/>
</clipPath>
</defs>
</svg>
