<svg width="20" height="20" viewBox="0 0 20 20" fill="none" xmlns="http://www.w3.org/2000/svg">
<path d="M18.9483 9.757C18.922 9.69775 18.2868 8.2885 16.8745 6.87625C14.9928 4.9945 12.616 4 10 4C7.384 4 5.00725 4.9945 3.12549 6.87625C1.71324 8.2885 1.07499 9.70001 1.05174 9.757C1.01763 9.83374 1 9.91678 1 10.0008C1 10.0847 1.01763 10.1678 1.05174 10.2445C1.07799 10.3038 1.71324 11.7123 3.12549 13.1245C5.00725 15.0055 7.384 16 10 16C12.616 16 14.9928 15.0055 16.8745 13.1245C18.2868 11.7123 18.922 10.3038 18.9483 10.2445C18.9824 10.1678 19 10.0847 19 10.0008C19 9.91678 18.9824 9.83374 18.9483 9.757ZM10 13C9.40666 13 8.82664 12.8241 8.33329 12.4944C7.83994 12.1648 7.45542 11.6962 7.22836 11.1481C7.0013 10.5999 6.94189 9.99668 7.05764 9.41473C7.1734 8.83279 7.45912 8.29824 7.87868 7.87868C8.29824 7.45913 8.83278 7.1734 9.41473 7.05765C9.99667 6.94189 10.5999 7.0013 11.1481 7.22836C11.6962 7.45543 12.1648 7.83995 12.4944 8.33329C12.8241 8.82664 13 9.40666 13 10C13 10.7957 12.6839 11.5587 12.1213 12.1213C11.5587 12.6839 10.7956 13 10 13Z" fill="#FDBC14"/>
</svg>
