<svg width="124" height="34" viewBox="0 0 124 34" fill="none" xmlns="http://www.w3.org/2000/svg">
<g clip-path="url(#clip0_0_837)">
<path d="M39.6514 7.104C39.3962 7.104 39.1794 7.28998 39.1395 7.54322L36.1855 26.3486C36.1747 26.4173 36.179 26.4875 36.1978 26.5544C36.2167 26.6213 36.2498 26.6833 36.2948 26.7362C36.3398 26.789 36.3957 26.8314 36.4586 26.8605C36.5215 26.8896 36.59 26.9047 36.6593 26.9047H40.1625C40.4173 26.9047 40.6345 26.7184 40.6744 26.4655L41.5421 20.9431C41.5817 20.6903 41.7988 20.5039 42.054 20.5039H45.2391C48.9605 20.5039 52.1196 17.7782 52.6966 14.0848C53.2784 10.3601 50.3797 7.11209 46.2712 7.104H39.6514ZM43.0569 11.3021H45.6052C47.7032 11.3021 48.3864 12.5448 48.1704 13.919C47.9544 15.2962 46.8933 16.3106 44.8638 16.3106H42.27L43.0569 11.3021ZM59.8217 12.5804C58.9371 12.5837 57.9193 12.7657 56.7766 13.2435C54.1553 14.3402 52.8966 16.6069 52.362 18.2593C52.362 18.2593 50.6605 23.3009 54.5046 26.0708C54.5046 26.0708 58.0698 28.7373 62.083 25.9065L62.0138 26.3486C62.0031 26.4173 62.0073 26.4874 62.0261 26.5542C62.045 26.6211 62.078 26.6831 62.1229 26.7359C62.1679 26.7887 62.2237 26.8312 62.2865 26.8603C62.3493 26.8895 62.4177 26.9046 62.4869 26.9047H65.8125C66.0677 26.9047 66.2845 26.7184 66.3244 26.4655L68.3474 13.5875C68.3582 13.5188 68.3541 13.4486 68.3353 13.3816C68.3165 13.3147 68.2835 13.2526 68.2386 13.1997C68.1936 13.1468 68.1378 13.1043 68.0749 13.0751C68.012 13.0459 67.9436 13.0308 67.8743 13.0307H64.5486C64.2934 13.0307 64.0763 13.217 64.0368 13.4699L63.928 14.1631C63.928 14.1631 62.4759 12.5705 59.8217 12.5804ZM59.9305 16.648C60.3124 16.648 60.6617 16.701 60.9751 16.802C62.41 17.2644 63.2236 18.6482 62.9881 20.1481C62.6978 21.9951 61.1889 23.355 59.2539 23.355C58.8723 23.355 58.523 23.3024 58.2093 23.2013C56.7747 22.739 55.956 21.3552 56.1915 19.8552C56.4818 18.0083 57.9954 16.648 59.9305 16.648Z" fill="#003087"/>
<path d="M87.542 7.104C87.2868 7.104 87.07 7.28998 87.0301 7.54322L84.0761 26.3486C84.0654 26.4173 84.0696 26.4875 84.0885 26.5544C84.1073 26.6213 84.1404 26.6833 84.1855 26.7362C84.2305 26.789 84.2864 26.8314 84.3493 26.8605C84.4122 26.8896 84.4806 26.9047 84.5499 26.9047H88.0531C88.308 26.9047 88.5251 26.7184 88.565 26.4655L89.4328 20.9431C89.4723 20.6903 89.6894 20.5039 89.9446 20.5039H93.1297C96.8511 20.5039 100.01 17.7782 100.587 14.0848C101.169 10.3601 98.2703 7.11209 94.1618 7.104H87.542ZM90.9475 11.3021H93.4958C95.5938 11.3021 96.277 12.5448 96.061 13.919C95.845 15.2962 94.7843 16.3106 92.7544 16.3106H90.1607L90.9475 11.3021ZM107.712 12.5804C106.827 12.5837 105.81 12.7657 104.667 13.2435C102.046 14.3402 100.787 16.6069 100.252 18.2593C100.252 18.2593 98.5515 23.3009 102.396 26.0708C102.396 26.0708 105.96 28.7373 109.974 25.9065L109.904 26.3486C109.894 26.4173 109.898 26.4875 109.917 26.5544C109.936 26.6213 109.969 26.6833 110.014 26.7362C110.059 26.789 110.115 26.8314 110.178 26.8605C110.241 26.8896 110.309 26.9047 110.378 26.9047H113.704C113.959 26.9047 114.176 26.7184 114.215 26.4655L116.239 13.5875C116.25 13.5187 116.246 13.4484 116.227 13.3814C116.208 13.3145 116.175 13.2524 116.13 13.1994C116.085 13.1465 116.029 13.104 115.966 13.0749C115.903 13.0457 115.835 13.0306 115.765 13.0307H112.44C112.184 13.0307 111.967 13.217 111.928 13.4699L111.819 14.1631C111.819 14.1631 110.366 12.5705 107.712 12.5804ZM107.821 16.648C108.203 16.648 108.552 16.701 108.865 16.802C110.3 17.2644 111.114 18.6482 110.878 20.1481C110.588 21.9951 109.079 23.355 107.144 23.355C106.763 23.355 106.413 23.3024 106.1 23.2013C104.665 22.739 103.846 21.3552 104.082 19.8552C104.372 18.0083 105.886 16.648 107.821 16.648Z" fill="#0070E0"/>
<path d="M69.9246 13.0311C69.6609 13.0311 69.4735 13.2895 69.554 13.5412L73.2001 24.8987L69.9033 30.2509C69.7433 30.5107 69.9293 30.8463 70.2336 30.8463H74.1301C74.2415 30.8462 74.351 30.8173 74.4481 30.7623C74.5451 30.7073 74.6264 30.6281 74.684 30.5324L84.8668 13.6228C85.0231 13.363 84.8364 13.0307 84.534 13.0307H80.6379C80.5253 13.0308 80.4148 13.0603 80.3171 13.1163C80.2194 13.1723 80.1379 13.2529 80.0806 13.3501L76.0724 20.143L74.0378 13.4004C73.9715 13.181 73.7698 13.0307 73.5417 13.0307L69.9246 13.0311Z" fill="#003087"/>
<path d="M120.019 7.104C119.765 7.104 119.547 7.29035 119.508 7.54322L116.553 26.3479C116.542 26.4166 116.546 26.4869 116.565 26.5539C116.584 26.6209 116.617 26.683 116.662 26.7359C116.707 26.7889 116.763 26.8314 116.826 26.8605C116.889 26.8896 116.957 26.9047 117.027 26.9047H120.53C120.785 26.9047 121.002 26.7184 121.042 26.4655L123.996 7.6601C124.006 7.59147 124.002 7.52132 123.983 7.45447C123.965 7.38762 123.932 7.32565 123.887 7.27282C123.842 7.21999 123.786 7.17755 123.723 7.14841C123.66 7.11927 123.592 7.10412 123.523 7.104H120.019Z" fill="#0070E0"/>
<path d="M10.444 7.104C10.2183 7.10419 10.0001 7.18516 9.82857 7.33236C9.65704 7.47956 9.5434 7.68334 9.50811 7.90709L7.95312 17.8073C8.02562 17.3449 8.42251 17.0042 8.88897 17.0042H13.4456C18.0315 17.0042 21.9229 13.6459 22.6339 9.09499C22.6868 8.75523 22.7168 8.41226 22.7236 8.06844C21.5582 7.45501 20.1892 7.104 18.6891 7.104H10.444Z" fill="#001C64"/>
<path d="M22.7226 8.06885C22.7158 8.41267 22.6858 8.75563 22.6329 9.0954C21.9219 13.6463 18.0301 17.0046 13.4446 17.0046H8.88796C8.42186 17.0046 8.02461 17.3449 7.95211 17.8077L6.52232 26.9051L5.62674 32.6123C5.60927 32.7226 5.61582 32.8354 5.64596 32.9428C5.67611 33.0503 5.72914 33.1499 5.80137 33.2349C5.87359 33.3198 5.96331 33.3879 6.06433 33.4346C6.16535 33.4814 6.27527 33.5055 6.38649 33.5055H11.3323C11.558 33.5053 11.7762 33.4243 11.9477 33.2771C12.1193 33.1299 12.2329 32.9261 12.2682 32.7024L13.5709 24.408C13.6062 24.1842 13.7199 23.9803 13.8916 23.8331C14.0633 23.6858 14.2817 23.605 14.5075 23.6049H17.4194C22.0054 23.6049 25.8967 20.2467 26.6077 15.6958C27.1126 12.4658 25.4921 9.52653 22.7226 8.06885Z" fill="#0070E0"/>
<path d="M4.82651 0.505371C4.36041 0.505371 3.96316 0.845717 3.89066 1.30772L0.00955198 26.0126C-0.0640424 26.4816 0.296983 26.9057 0.770037 26.9057H6.52541L7.95447 17.8083L9.50945 7.90808C9.54474 7.68433 9.65838 7.48055 9.82991 7.33335C10.0014 7.18615 10.2196 7.10518 10.4453 7.105H18.6905C20.1909 7.105 21.5595 7.45637 22.725 8.06943C22.8048 3.92611 19.3989 0.505371 14.7163 0.505371H4.82651Z" fill="#003087"/>
</g>
<defs>
<clipPath id="clip0_0_837">
<rect width="124" height="33" fill="white" transform="translate(0 0.505371)"/>
</clipPath>
</defs>
</svg>
