<svg width="160" height="27" viewBox="0 0 160 27" fill="none" xmlns="http://www.w3.org/2000/svg">
<g clip-path="url(#clip0_0_944)">
<path d="M29.7908 21.6855V5.0066H37.0457C37.7667 4.99918 38.4799 5.15641 39.1309 5.46632C39.7478 5.75942 40.3043 6.16565 40.7715 6.66391C41.2304 7.15493 41.5981 7.72386 41.8573 8.34399C42.1153 8.94528 42.2496 9.59232 42.2523 10.2466C42.2542 10.9256 42.1286 11.5989 41.8821 12.2316C41.6446 12.8516 41.2931 13.4216 40.8458 13.9122C40.3955 14.4022 39.8552 14.801 39.2543 15.087C38.6379 15.3827 37.9511 15.5306 37.1939 15.5306H31.5184V21.6855H29.7908ZM31.5184 14.074H37.1195C37.6029 14.0801 38.0807 13.9714 38.5139 13.7569C38.9257 13.5516 39.291 13.2638 39.5871 12.9113C39.8889 12.549 40.123 12.1353 40.2784 11.69C40.4428 11.226 40.5261 10.7373 40.5247 10.2451C40.5271 9.74232 40.4307 9.244 40.241 8.77842C40.0617 8.33207 39.8026 7.92213 39.4763 7.56869C39.156 7.22541 38.7699 6.9502 38.3409 6.7595C37.9106 6.56537 37.4439 6.46536 36.9719 6.46617H31.5184V14.074Z" fill="#7786E6" stroke="#7786E6" stroke-width="0.657464" stroke-miterlimit="10"/>
<path d="M56.9093 20.2289V21.6854H45.1387V5.00659H56.6878V6.46313H46.8663V12.4764H55.4285V13.8616H46.8663V20.2289H56.9093Z" fill="#7786E6" stroke="#7786E6" stroke-width="0.657464" stroke-miterlimit="10"/>
<path d="M71.9376 20.2289V21.6854H60.167V5.00659H71.7156V6.46313H61.8941V12.4764H70.4568V13.8616H61.8941V20.2289H71.9376Z" fill="#7786E6" stroke="#7786E6" stroke-width="0.657464" stroke-miterlimit="10"/>
<path d="M75.1942 21.6855V5.00664H82.5968C83.3176 4.99869 84.0308 5.1554 84.6819 5.46484C85.9156 6.04964 86.8845 7.07678 87.3962 8.34251C87.6466 8.9457 87.7767 9.59202 87.7791 10.2451C87.7816 10.8401 87.6855 11.4314 87.4949 11.995C87.3142 12.5353 87.0476 13.043 86.7054 13.4985C86.3688 13.9443 85.9552 14.3263 85.484 14.6263C84.9951 14.9366 84.4501 15.1481 83.8798 15.2489L88.1736 21.6855H86.2234L82.1037 15.5306H76.9213V21.6855H75.1942ZM76.9213 14.0741H82.6463C83.1296 14.0801 83.6075 13.9715 84.0406 13.757C84.455 13.5493 84.8207 13.2563 85.1138 12.8972C85.4127 12.5327 85.6464 12.1194 85.8047 11.6753C85.9701 11.2159 86.0536 10.7309 86.0515 10.2426C86.0526 9.74716 85.9562 9.25636 85.7678 8.79818C85.5882 8.35257 85.3291 7.94334 85.0031 7.59047C84.6812 7.2457 84.2956 6.96646 83.8677 6.76813C83.4392 6.56706 82.9715 6.46343 82.4981 6.46469H76.9213V14.0741Z" fill="#7786E6" stroke="#7786E6" stroke-width="0.657464" stroke-miterlimit="10"/>
<path d="M90.1484 13.2285C90.1527 12.2049 90.3412 11.1904 90.7048 10.2335C91.0693 9.24971 91.6186 8.3447 92.3231 7.56724C93.0312 6.78435 93.9031 6.1461 94.9388 5.6525C95.9746 5.15889 97.1493 4.91226 98.4628 4.9126C100.025 4.9126 101.362 5.24976 102.472 5.92408C103.583 6.5984 104.401 7.47502 104.928 8.55394L103.571 9.3525C103.313 8.83409 102.967 8.3649 102.547 7.96627C101.787 7.24911 100.843 6.75711 99.8202 6.54513C99.3413 6.44527 98.8535 6.39444 98.3642 6.39341C97.3113 6.39341 96.3819 6.59706 95.5761 7.00435C94.7956 7.39212 94.1029 7.93588 93.541 8.60198C92.9909 9.25794 92.5682 10.0109 92.2948 10.8222C92.018 11.6273 91.8764 12.4727 91.8755 13.3241C91.8726 14.2332 92.0443 15.1344 92.3813 15.9787C92.7051 16.8026 93.1731 17.5621 93.7635 18.2217C94.3453 18.8706 95.0501 19.3977 95.837 19.7723C96.6499 20.1595 97.5403 20.3563 98.4406 20.3478C98.9513 20.3458 99.4602 20.2868 99.9578 20.1718C100.483 20.052 100.989 19.8623 101.463 19.6079C101.952 19.3478 102.404 19.0247 102.808 18.647C103.232 18.245 103.583 17.7719 103.844 17.2492L105.276 17.9537C104.996 18.5798 104.593 19.1432 104.091 19.61C103.581 20.088 103.008 20.495 102.388 20.8197C101.759 21.1504 101.092 21.4028 100.402 21.5712C99.7281 21.7406 99.0362 21.8276 98.3415 21.8302C97.1408 21.8302 96.0386 21.5795 95.0349 21.0781C94.0545 20.5936 93.1754 19.9268 92.4445 19.1133C91.7204 18.3062 91.1478 17.375 90.7543 16.3646C90.3561 15.3669 90.1506 14.3028 90.1484 13.2285Z" fill="#7786E6" stroke="#7786E6" stroke-width="0.657464" stroke-miterlimit="10"/>
<path d="M108.235 21.6855V5.00659H109.962V20.2294H120.08V21.686L108.235 21.6855Z" fill="#7786E6" stroke="#7786E6" stroke-width="0.657464" stroke-miterlimit="10"/>
<path d="M122.621 21.6854V5.00659H124.348V21.6854H122.621Z" fill="#7786E6" stroke="#7786E6" stroke-width="0.657464" stroke-miterlimit="10"/>
<path d="M127.58 13.2285C127.584 12.2049 127.773 11.1904 128.136 10.2335C128.501 9.24962 129.05 8.34458 129.755 7.56724C130.463 6.78435 131.335 6.1461 132.37 5.6525C133.406 5.15889 134.582 4.91226 135.899 4.9126C137.462 4.9126 138.798 5.24976 139.909 5.92408C141.019 6.5984 141.836 7.47418 142.36 8.55141L141.003 9.35048C140.745 8.83217 140.399 8.36301 139.979 7.96424C139.219 7.24709 138.275 6.75508 137.252 6.54311C136.773 6.44325 136.286 6.39242 135.796 6.39139C134.743 6.39139 133.814 6.59503 133.008 7.00232C132.228 7.39069 131.535 7.93515 130.973 8.60198C130.423 9.25794 130 10.0109 129.727 10.8222C129.45 11.6273 129.309 12.4727 129.308 13.3241C129.305 14.2332 129.476 15.1344 129.813 15.9787C130.137 16.8026 130.605 17.5622 131.195 18.2217C131.777 18.8706 132.482 19.3976 133.269 19.7723C134.081 20.1595 134.972 20.3563 135.872 20.3478C136.382 20.3458 136.891 20.2868 137.389 20.1718C137.914 20.0519 138.42 19.8623 138.894 19.6079C139.383 19.3478 139.835 19.0247 140.239 18.647C140.664 18.245 141.014 17.7719 141.276 17.2492L142.706 17.9537C142.427 18.5799 142.024 19.1433 141.522 19.61C141.012 20.0881 140.439 20.4951 139.82 20.8197C139.19 21.1503 138.523 21.4027 137.833 21.5712C137.159 21.7406 136.467 21.8275 135.773 21.8302C134.572 21.8302 133.469 21.5795 132.466 21.0781C131.486 20.5948 130.606 19.9292 129.875 19.1169C129.151 18.31 128.578 17.3788 128.185 16.3682C127.786 15.3693 127.581 14.3039 127.58 13.2285Z" fill="#7786E6" stroke="#7786E6" stroke-width="0.657464" stroke-miterlimit="10"/>
<path d="M145.668 21.6854V5.02986H147.395V14.7082L157.043 5.00659H158.943L151.787 12.3358L159.314 21.6854H157.414L150.701 13.2992L147.395 16.5643V21.6854H145.668Z" fill="#7786E6" stroke="#7786E6" stroke-width="0.657464" stroke-miterlimit="10"/>
<path d="M11.1777 25.5791L10.6846 25.1093L18.5564 17.6157L19.0495 18.0851L11.1777 25.5791Z" fill="#7786E6" stroke="#6FB353" stroke-width="0.682246" stroke-miterlimit="10"/>
<path d="M5.3791 21.4209L4.8855 20.9516L25.2805 1.53564L25.7742 2.00497L5.3791 21.4209Z" fill="#7786E6" stroke="#7786E6" stroke-width="0.960909" stroke-miterlimit="10"/>
<path d="M10.783 21.1155L10.2899 20.6462L22.2764 9.23511L22.7695 9.70444L10.783 21.1155Z" fill="#DAC865" stroke="#DAC865" stroke-width="0.960909" stroke-miterlimit="10"/>
<path d="M5.70013 16.2761L5.20703 15.8068L17.1936 4.39575L17.6867 4.86508L5.70013 16.2761Z" fill="#7786E6" stroke="#97493E" stroke-width="0.960909" stroke-miterlimit="10"/>
<path d="M1.19036 15.7298L0.697266 15.2604L8.56914 7.76636L9.06223 8.23569L1.19036 15.7298Z" fill="#7786E6" stroke="#7786E6" stroke-width="0.960909" stroke-miterlimit="10"/>
</g>
<defs>
<clipPath id="clip0_0_944">
<rect width="160" height="25.1778" fill="white" transform="translate(0 0.87207)"/>
</clipPath>
</defs>
</svg>
