<svg width="390" height="37" viewBox="0 0 390 37" fill="none" xmlns="http://www.w3.org/2000/svg">
<path d="M0 -0.00012207H195H390L365.5 8L341.25 15.0924L317 21.5L292.5 26.4305L268 30.5L243.75 32.8389L219.5 34.5L195 35.3037L170.5 34.5L146.5 33L134 32L122 30L97.5 26.4305L73 21.5L48.75 15.0924L24.5 8L0 -0.00012207Z" fill="#181818"/>
<g clip-path="url(#clip0_179_1424)">
<path d="M0 0V0C125.629 47.6746 264.371 47.6746 390 0V0" stroke="url(#paint0_linear_179_1424)" stroke-width="2"/>
</g>
<defs>
<linearGradient id="paint0_linear_179_1424" x1="-2.37233" y1="-37809.4" x2="389.392" y2="-37809.4" gradientUnits="userSpaceOnUse">
<stop stop-color="#151517"/>
<stop offset="0.473958" stop-color="#FF9A02"/>
<stop offset="1" stop-color="#151517"/>
</linearGradient>
<clipPath id="clip0_179_1424">
<rect width="390" height="37" fill="white" transform="matrix(-1 0 0 -1 390 37)"/>
</clipPath>
</defs>
</svg>
