<svg width="40" height="40" viewBox="0 0 40 40" fill="none" xmlns="http://www.w3.org/2000/svg">
<path fill-rule="evenodd" clip-rule="evenodd" d="M9.88872 17.3387L23.7992 3.39109C24.0803 3.10862 24.4143 2.88451 24.782 2.73161C25.1496 2.57871 25.5437 2.5 25.9417 2.5C26.3397 2.5 26.7338 2.57871 27.1015 2.73161C27.4691 2.88451 27.8031 3.10862 28.0842 3.39109C28.366 3.673 28.5895 4.00784 28.742 4.37647C28.8945 4.74509 28.9729 5.14025 28.9729 5.53933C28.9729 5.93841 28.8945 6.33356 28.742 6.70219C28.5895 7.07081 28.366 7.40566 28.0842 7.68757L16.3183 19.4869L28.0842 31.2843C28.3716 31.5651 28.6006 31.9003 28.7578 32.2705C28.915 32.6407 28.9973 33.0385 28.9999 33.4409C29.0026 33.8432 28.9255 34.2421 28.7732 34.6143C28.6209 34.9866 28.3964 35.3248 28.1128 35.6094C27.8291 35.894 27.4919 36.1192 27.1207 36.2721C26.7495 36.425 26.3517 36.5024 25.9504 36.4999C25.5492 36.4975 25.1524 36.4151 24.7831 36.2577C24.4138 36.1002 24.0794 35.8708 23.7992 35.5828L9.92449 21.6711L9.91257 21.6571L9.88872 21.6352C9.607 21.3533 9.38349 21.0184 9.23099 20.6498C9.07849 20.2812 9 19.886 9 19.4869C9 19.0879 9.07849 18.6927 9.23099 18.3241C9.38349 17.9555 9.607 17.6206 9.88872 17.3387Z" fill="#FDBC14"/>
</svg>
