<svg width="296" height="245" viewBox="0 0 296 245" fill="none" xmlns="http://www.w3.org/2000/svg">
<path d="M150.651 132.286L150.62 140.306L140.754 133.01L140.785 125.461" stroke="#FDBC14" stroke-width="3" stroke-linecap="round" stroke-linejoin="round"/>
<path d="M150.553 132.059L140.754 125.212L171.367 119.688L181.166 126.534L162.175 129.961L150.553 132.059Z" stroke="#FDBC14" stroke-width="3" stroke-linecap="round" stroke-linejoin="round"/>
<path d="M181.166 127.11L181.137 134.396L150.65 140.306" stroke="#FDBC14" stroke-width="3" stroke-linecap="round" stroke-linejoin="round"/>
<path d="M161.371 121.337L170.443 128.76" stroke="#FDBC14" stroke-width="3" stroke-linecap="round" stroke-linejoin="round"/>
<path d="M162.196 130.409L152.299 122.987" stroke="#FDBC14" stroke-width="3" stroke-linecap="round" stroke-linejoin="round"/>
<path d="M170.444 128.76V136.183" stroke="#FDBC14" stroke-width="3" stroke-linecap="round" stroke-linejoin="round"/>
<path d="M162.197 130.409V137.832" stroke="#FDBC14" stroke-width="3" stroke-linecap="round" stroke-linejoin="round"/>
<path d="M151.025 112.957C151.811 114.484 153.748 115.564 156.011 115.564C158.971 115.564 161.372 113.717 161.372 111.44C161.372 108.347 158.87 107.659 156.011 107.316C152.309 106.871 150.65 105.469 150.65 103.193C150.65 100.916 153.051 99.0688 156.011 99.0688C158.215 99.0688 160.108 100.091 160.932 101.554" stroke="#FDBC14" stroke-width="3" stroke-linecap="round" stroke-linejoin="round"/>
<path d="M156.424 96.5947V118.038" stroke="#FDBC14" stroke-width="3" stroke-linecap="round" stroke-linejoin="round"/>
<path d="M166.32 115.564C167.604 114.2 168.49 112.72 168.795 110.615" stroke="#FDBC14" stroke-width="3" stroke-linecap="round" stroke-linejoin="round"/>
<path d="M137.453 106.785C139.771 99.5181 147.962 93.485 150.968 88.9097C153.326 85.3216 145.881 79.5991 144.612 77.7576C143.318 75.8768 145.45 73.4291 149.325 73.5037C154.406 73.6027 155.743 76.8612 158.726 76.0964C160.917 75.5337 164.447 74.3444 165.25 76.0002C166.648 78.8804 157.695 84.4063 160.476 89.0358C163.376 93.8688 174.567 101.612 174.567 110.598C174.567 112.693 174.028 114.642 173.066 116.389" stroke="#FDBC14" stroke-width="3" stroke-linecap="round" stroke-linejoin="round"/>
<path d="M150.65 86.6978H162.197" stroke="#FDBC14" stroke-width="3" stroke-linecap="round" stroke-linejoin="round"/>
<path d="M125.908 111.44C120.898 111.44 116.836 110.016 116.836 108.259V104.018" stroke="#FDBC14" stroke-width="3" stroke-linecap="round" stroke-linejoin="round"/>
<path d="M133.33 104.017V107.316" stroke="#FDBC14" stroke-width="3" stroke-linecap="round" stroke-linejoin="round"/>
<path d="M125.908 116.389C120.898 116.389 116.836 114.806 116.836 112.854V108.141" stroke="#FDBC14" stroke-width="3" stroke-linecap="round" stroke-linejoin="round"/>
<path d="M125.908 120.513C120.898 120.513 116.836 119.088 116.836 117.331V113.09" stroke="#FDBC14" stroke-width="3" stroke-linecap="round" stroke-linejoin="round"/>
<path d="M125.908 124.636C120.898 124.636 116.836 123.212 116.836 121.455V117.213" stroke="#FDBC14" stroke-width="3" stroke-linecap="round" stroke-linejoin="round"/>
<path d="M129.207 113.914C129.207 115.736 132.9 117.213 137.454 117.213C142.009 117.213 145.702 115.736 145.702 113.914C145.702 112.092 142.009 110.615 137.454 110.615C132.9 110.615 129.207 112.092 129.207 113.914Z" stroke="#FDBC14" stroke-width="3" stroke-linecap="round" stroke-linejoin="round"/>
<path d="M145.702 113.915V118.156C145.702 119.913 142.009 121.337 137.454 121.337C132.9 121.337 129.207 119.913 129.207 118.156V113.915" stroke="#FDBC14" stroke-width="3" stroke-linecap="round" stroke-linejoin="round"/>
<path d="M136.63 125.461C132.53 125.461 129.207 124.036 129.207 122.279V118.038" stroke="#FDBC14" stroke-width="3" stroke-linecap="round" stroke-linejoin="round"/>
<path d="M136.63 130.41C132.53 130.41 129.207 128.827 129.207 126.875V122.162" stroke="#FDBC14" stroke-width="3" stroke-linecap="round" stroke-linejoin="round"/>
<path d="M116.836 99.8937C116.836 101.716 120.528 103.193 125.083 103.193C129.638 103.193 133.331 101.716 133.331 99.8937C133.331 98.0717 129.638 96.5947 125.083 96.5947C120.528 96.5947 116.836 98.0717 116.836 99.8937Z" stroke="#FDBC14" stroke-width="3" stroke-linecap="round" stroke-linejoin="round"/>
<path d="M133.331 99.894V104.135C133.331 105.892 129.638 107.317 125.083 107.317C120.528 107.317 116.836 105.892 116.836 104.135V99.894" stroke="#FDBC14" stroke-width="3" stroke-linecap="round" stroke-linejoin="round"/>
<path d="M145.701 118.038V120.512" stroke="#FDBC14" stroke-width="3" stroke-linecap="round" stroke-linejoin="round"/>
<g filter="url(#filter0_f_57_396)">
<rect x="83.3906" y="82.5225" width="130" height="80" fill="url(#paint0_radial_57_396)"/>
</g>
<defs>
<filter id="filter0_f_57_396" x="0.916397" y="0.048233" width="294.948" height="244.948" filterUnits="userSpaceOnUse" color-interpolation-filters="sRGB">
<feFlood flood-opacity="0" result="BackgroundImageFix"/>
<feBlend mode="normal" in="SourceGraphic" in2="BackgroundImageFix" result="shape"/>
<feGaussianBlur stdDeviation="41.2371" result="effect1_foregroundBlur_57_396"/>
</filter>
<radialGradient id="paint0_radial_57_396" cx="0" cy="0" r="1" gradientUnits="userSpaceOnUse" gradientTransform="translate(148.391 122.522) rotate(90) scale(40 65)">
<stop stop-color="#FF9A02"/>
<stop offset="1" stop-color="#FF9A02" stop-opacity="0"/>
</radialGradient>
</defs>
</svg>
