<svg width="330" height="280" viewBox="0 0 330 280" fill="none" xmlns="http://www.w3.org/2000/svg">
<g filter="url(#filter0_f_57_326)">
<rect x="100" y="100.002" width="130" height="80" fill="url(#paint0_radial_57_326)"/>
</g>
<path d="M137.08 85.002H133.313C129.822 85.002 127 87.8238 127 91.3151V135.126C127 138.618 129.822 141.439 133.313 141.439H196.812C200.303 141.439 203.125 138.618 203.125 135.126V91.3151C203.125 87.8238 200.303 85.002 196.812 85.002H137.08Z" stroke="#FDBC14" stroke-width="3" stroke-linecap="round" stroke-linejoin="round"/>
<path d="M172.938 146.689V151.939H157.188V146.689" stroke="#FDBC14" stroke-width="3" stroke-linecap="round" stroke-linejoin="round"/>
<path d="M127 130.939H203.125" stroke="#FDBC14" stroke-width="3" stroke-linecap="round" stroke-linejoin="round"/>
<path d="M162.438 136.189H167.688" stroke="#FDBC14" stroke-width="3" stroke-linecap="round" stroke-linejoin="round"/>
<path d="M179.5 158.502H150.625" stroke="#FDBC14" stroke-width="3" stroke-linecap="round" stroke-linejoin="round"/>
<path d="M150.625 158.502V157.189C150.625 154.291 152.976 151.939 155.875 151.939H174.25C177.149 151.939 179.5 154.291 179.5 157.189V158.502" stroke="#FDBC14" stroke-width="3" stroke-linecap="round" stroke-linejoin="round"/>
<path d="M169.241 117.602H167.321C166.791 117.602 166.361 117.172 166.361 116.642V108.962C166.361 108.432 166.791 108.002 167.321 108.002H169.241C170.83 108.002 172.121 109.293 172.121 110.882V114.722C172.121 116.311 170.83 117.602 169.241 117.602ZM168.281 115.682H169.241C169.772 115.682 170.201 115.252 170.201 114.722V110.882C170.201 110.352 169.772 109.922 169.241 109.922H168.281V115.682Z" fill="#FDBC14"/>
<path d="M167.32 109.922C166.79 109.922 166.36 109.493 166.36 108.962V106.082C166.36 100.26 161.623 95.5221 155.8 95.5221C149.978 95.5221 145.24 100.26 145.24 106.082V108.962C145.24 109.493 144.811 109.922 144.28 109.922C143.75 109.922 143.32 109.493 143.32 108.962V106.082C143.32 99.2013 148.92 93.6021 155.8 93.6021C162.681 93.6021 168.28 99.2013 168.28 106.082V108.962C168.28 109.493 167.851 109.922 167.32 109.922Z" fill="#FDBC14"/>
<path d="M158.681 122.402H152.921C149.216 122.402 146.201 119.388 146.201 115.682V108.002C146.201 107.472 146.631 107.042 147.161 107.042C147.233 107.042 154.4 106.994 156.953 103.586C157.27 103.164 157.872 103.077 158.297 103.394C158.722 103.711 158.808 104.313 158.489 104.738C158.163 105.173 157.786 105.561 157.373 105.912C158.453 106.397 160.613 107.042 164.441 107.042C164.972 107.042 165.401 107.472 165.401 108.002V115.682C165.401 119.388 162.387 122.402 158.681 122.402ZM148.121 108.926V115.682C148.121 118.329 150.274 120.482 152.921 120.482H158.681C161.328 120.482 163.481 118.329 163.481 115.682V108.95C158.691 108.816 156.425 107.697 155.554 107.105C152.904 108.465 149.698 108.83 148.121 108.926Z" fill="#FDBC14"/>
<path d="M144.28 117.602H142.36C140.772 117.602 139.48 116.311 139.48 114.722V110.882C139.48 109.293 140.772 108.002 142.36 108.002H144.28C144.811 108.002 145.24 108.432 145.24 108.962V116.642C145.24 117.172 144.811 117.602 144.28 117.602ZM142.36 109.922C141.83 109.922 141.4 110.352 141.4 110.882V114.722C141.4 115.252 141.83 115.682 142.36 115.682H143.32V109.922H142.36Z" fill="#FDBC14"/>
<path d="M167.32 117.602H159.64C159.109 117.602 158.68 117.173 158.68 116.642C158.68 116.112 159.109 115.682 159.64 115.682H167.32C167.85 115.682 168.28 116.112 168.28 116.642C168.28 117.173 167.85 117.602 167.32 117.602Z" fill="#FDBC14"/>
<path d="M159.64 118.563H155.8C155.269 118.563 154.84 118.133 154.84 117.603V115.683C154.84 115.152 155.269 114.723 155.8 114.723H159.64C160.17 114.723 160.6 115.152 160.6 115.683V117.603C160.6 118.133 160.17 118.563 159.64 118.563Z" fill="#FDBC14"/>
<path d="M190.359 119.523H174.999C174.469 119.523 174.039 119.093 174.039 118.563V105.521L169.52 101.002C169.246 100.728 169.162 100.315 169.311 99.9552C169.46 99.5976 169.81 99.3624 170.199 99.3624H174.039V97.4424C174.039 96.912 174.469 96.4824 174.999 96.4824H190.359C190.89 96.4824 191.319 96.912 191.319 97.4424V118.563C191.319 119.093 190.89 119.523 190.359 119.523ZM175.959 117.603H189.399V98.4024H175.959V100.322C175.959 100.853 175.529 101.282 174.999 101.282H172.517L175.678 104.443C175.858 104.623 175.959 104.868 175.959 105.122V117.603Z" fill="#FDBC14"/>
<path d="M184.601 115.683H180.761C180.23 115.683 179.801 115.253 179.801 114.723C179.801 114.192 180.23 113.763 180.761 113.763H184.601C185.131 113.763 185.561 114.192 185.561 114.723C185.561 115.253 185.131 115.683 184.601 115.683Z" fill="#FDBC14"/>
<path d="M182.681 115.683C182.15 115.683 181.721 115.253 181.721 114.723V105.123C181.721 104.592 182.15 104.163 182.681 104.163C183.211 104.163 183.641 104.592 183.641 105.123V114.723C183.641 115.253 183.211 115.683 182.681 115.683Z" fill="#FDBC14"/>
<path d="M182.681 106.083H180.761C180.23 106.083 179.801 105.653 179.801 105.123C179.801 104.592 180.23 104.163 180.761 104.163H182.681C183.211 104.163 183.641 104.592 183.641 105.123C183.641 105.653 183.211 106.083 182.681 106.083Z" fill="#FDBC14"/>
<path d="M182.681 103.202C182.15 103.202 181.721 102.773 181.721 102.242V101.282C181.721 100.752 182.15 100.322 182.681 100.322C183.211 100.322 183.641 100.752 183.641 101.282V102.242C183.641 102.773 183.211 103.202 182.681 103.202Z" fill="#FDBC14"/>
<defs>
<filter id="filter0_f_57_326" x="0" y="0.00195312" width="330" height="280" filterUnits="userSpaceOnUse" color-interpolation-filters="sRGB">
<feFlood flood-opacity="0" result="BackgroundImageFix"/>
<feBlend mode="normal" in="SourceGraphic" in2="BackgroundImageFix" result="shape"/>
<feGaussianBlur stdDeviation="50" result="effect1_foregroundBlur_57_326"/>
</filter>
<radialGradient id="paint0_radial_57_326" cx="0" cy="0" r="1" gradientUnits="userSpaceOnUse" gradientTransform="translate(165 140.002) rotate(90) scale(40 65)">
<stop stop-color="#FF9A02"/>
<stop offset="1" stop-color="#FF9A02" stop-opacity="0"/>
</radialGradient>
</defs>
</svg>
