<svg width="260" height="221" viewBox="0 0 260 221" fill="none" xmlns="http://www.w3.org/2000/svg">
<g filter="url(#filter0_f_119_2111)">
<rect x="78.8189" y="78.748" width="102.362" height="62.9921" fill="url(#paint0_radial_119_2111)"/>
</g>
<path d="M108.016 66.937H105.05C102.301 66.937 100.079 69.159 100.079 71.908V106.405C100.079 109.154 102.301 111.376 105.05 111.376H155.049C157.798 111.376 160.02 109.154 160.02 106.405V71.908C160.02 69.159 157.798 66.937 155.049 66.937H108.016Z" stroke="#FDBC14" stroke-width="2.3622" stroke-linecap="round" stroke-linejoin="round"/>
<path d="M136.25 115.51V119.644H123.848V115.51" stroke="#FDBC14" stroke-width="2.3622" stroke-linecap="round" stroke-linejoin="round"/>
<path d="M100.079 103.108H160.02" stroke="#FDBC14" stroke-width="2.3622" stroke-linecap="round" stroke-linejoin="round"/>
<path d="M127.982 107.242H132.116" stroke="#FDBC14" stroke-width="2.3622" stroke-linecap="round" stroke-linejoin="round"/>
<path d="M141.417 124.811H118.681" stroke="#FDBC14" stroke-width="2.3622" stroke-linecap="round" stroke-linejoin="round"/>
<path d="M118.681 124.811V123.778C118.681 121.495 120.532 119.644 122.815 119.644H137.283C139.566 119.644 141.417 121.495 141.417 123.778V124.811" stroke="#FDBC14" stroke-width="2.3622" stroke-linecap="round" stroke-linejoin="round"/>
<path d="M133.34 92.6064H131.828C131.41 92.6064 131.072 92.2681 131.072 91.8504V85.8032C131.072 85.3855 131.41 85.0472 131.828 85.0472H133.34C134.591 85.0472 135.607 86.0639 135.607 87.315V90.3386C135.607 91.5897 134.591 92.6064 133.34 92.6064ZM132.584 91.0945H133.34C133.757 91.0945 134.096 90.7563 134.096 90.3386V87.315C134.096 86.8973 133.757 86.5591 133.34 86.5591H132.584V91.0945Z" fill="#FDBC14"/>
<path d="M131.827 86.5592C131.409 86.5592 131.071 86.221 131.071 85.8033V83.5356C131.071 78.951 127.341 75.2206 122.756 75.2206C118.172 75.2206 114.441 78.951 114.441 83.5356V85.8033C114.441 86.221 114.103 86.5592 113.685 86.5592C113.268 86.5592 112.929 86.221 112.929 85.8033V83.5356C112.929 78.1176 117.338 73.7087 122.756 73.7087C128.174 73.7087 132.583 78.1176 132.583 83.5356V85.8033C132.583 86.221 132.245 86.5592 131.827 86.5592Z" fill="#FDBC14"/>
<path d="M125.025 96.3861H120.489C117.571 96.3861 115.198 94.0125 115.198 91.0947V85.0474C115.198 84.6298 115.536 84.2915 115.954 84.2915C116.01 84.2915 121.653 84.2537 123.664 81.5702C123.913 81.2376 124.388 81.1696 124.722 81.419C125.057 81.6685 125.125 82.1428 124.873 82.4773C124.616 82.8193 124.32 83.1255 123.995 83.4014C124.845 83.7831 126.546 84.2915 129.56 84.2915C129.978 84.2915 130.316 84.6298 130.316 85.0474V91.0947C130.316 94.0125 127.942 96.3861 125.025 96.3861ZM116.71 85.775V91.0947C116.71 93.1791 118.405 94.8743 120.489 94.8743H125.025C127.109 94.8743 128.804 93.1791 128.804 91.0947V85.7939C125.032 85.688 123.248 84.8074 122.562 84.3406C120.476 85.4121 117.951 85.6994 116.71 85.775Z" fill="#FDBC14"/>
<path d="M113.685 92.6064H112.174C110.923 92.6064 109.906 91.5897 109.906 90.3386V87.315C109.906 86.0639 110.923 85.0472 112.174 85.0472H113.685C114.103 85.0472 114.441 85.3855 114.441 85.8032V91.8504C114.441 92.2681 114.103 92.6064 113.685 92.6064ZM112.174 86.5591C111.756 86.5591 111.418 86.8973 111.418 87.315V90.3386C111.418 90.7563 111.756 91.0945 112.174 91.0945H112.93V86.5591H112.174Z" fill="#FDBC14"/>
<path d="M131.827 92.6064H125.779C125.362 92.6064 125.023 92.2682 125.023 91.8505C125.023 91.4329 125.362 91.0946 125.779 91.0946H131.827C132.244 91.0946 132.582 91.4329 132.582 91.8505C132.582 92.2682 132.244 92.6064 131.827 92.6064Z" fill="#FDBC14"/>
<path d="M125.779 93.3628H122.756C122.338 93.3628 122 93.0245 122 92.6069V91.095C122 90.6774 122.338 90.3391 122.756 90.3391H125.779C126.197 90.3391 126.535 90.6774 126.535 91.095V92.6069C126.535 93.0245 126.197 93.3628 125.779 93.3628Z" fill="#FDBC14"/>
<path d="M149.968 94.1186H137.873C137.456 94.1186 137.117 93.7804 137.117 93.3627V83.0937L133.559 79.5352C133.344 79.3198 133.277 78.9947 133.395 78.7113C133.512 78.4297 133.788 78.2445 134.094 78.2445H137.117V76.7327C137.117 76.315 137.456 75.9767 137.873 75.9767H149.968C150.385 75.9767 150.724 76.315 150.724 76.7327V93.3627C150.724 93.7804 150.385 94.1186 149.968 94.1186ZM138.629 92.6068H149.212V77.4886H138.629V79.0004C138.629 79.418 138.291 79.7563 137.873 79.7563H135.919L138.408 82.2451C138.55 82.3869 138.629 82.5796 138.629 82.78V92.6068Z" fill="#FDBC14"/>
<path d="M145.434 91.0951H142.41C141.992 91.0951 141.654 90.7568 141.654 90.3392C141.654 89.9215 141.992 89.5833 142.41 89.5833H145.434C145.851 89.5833 146.19 89.9215 146.19 90.3392C146.19 90.7568 145.851 91.0951 145.434 91.0951Z" fill="#FDBC14"/>
<path d="M143.922 91.0951C143.504 91.0951 143.166 90.7568 143.166 90.3392V82.78C143.166 82.3624 143.504 82.0241 143.922 82.0241C144.339 82.0241 144.678 82.3624 144.678 82.78V90.3392C144.678 90.7568 144.339 91.0951 143.922 91.0951Z" fill="#FDBC14"/>
<path d="M143.922 83.536H142.41C141.992 83.536 141.654 83.1977 141.654 82.78C141.654 82.3624 141.992 82.0241 142.41 82.0241H143.922C144.34 82.0241 144.678 82.3624 144.678 82.78C144.678 83.1977 144.34 83.536 143.922 83.536Z" fill="#FDBC14"/>
<path d="M143.922 81.268C143.504 81.268 143.166 80.9297 143.166 80.5121V79.7562C143.166 79.3385 143.504 79.0002 143.922 79.0002C144.339 79.0002 144.678 79.3385 144.678 79.7562V80.5121C144.678 80.9297 144.339 81.268 143.922 81.268Z" fill="#FDBC14"/>
<defs>
<filter id="filter0_f_119_2111" x="0.0787506" y="0.00787354" width="259.843" height="220.472" filterUnits="userSpaceOnUse" color-interpolation-filters="sRGB">
<feFlood flood-opacity="0" result="BackgroundImageFix"/>
<feBlend mode="normal" in="SourceGraphic" in2="BackgroundImageFix" result="shape"/>
<feGaussianBlur stdDeviation="39.3701" result="effect1_foregroundBlur_119_2111"/>
</filter>
<radialGradient id="paint0_radial_119_2111" cx="0" cy="0" r="1" gradientUnits="userSpaceOnUse" gradientTransform="translate(130 110.244) rotate(90) scale(31.4961 51.1811)">
<stop stop-color="#FF9A02"/>
<stop offset="1" stop-color="#FF9A02" stop-opacity="0"/>
</radialGradient>
</defs>
</svg>
