<svg width="234" height="194" viewBox="0 0 234 194" fill="none" xmlns="http://www.w3.org/2000/svg">
<path d="M118.843 104.342L118.819 110.657L111.05 104.912L111.074 98.9677" stroke="#FDBC14" stroke-width="2.3622" stroke-linecap="round" stroke-linejoin="round"/>
<path d="M118.766 104.163L111.05 98.7721L135.155 94.4217L142.871 99.8124L127.917 102.511L118.766 104.163Z" stroke="#FDBC14" stroke-width="2.3622" stroke-linecap="round" stroke-linejoin="round"/>
<path d="M142.871 100.266L142.848 106.003L118.843 110.657" stroke="#FDBC14" stroke-width="2.3622" stroke-linecap="round" stroke-linejoin="round"/>
<path d="M127.284 95.7205L134.428 101.565" stroke="#FDBC14" stroke-width="2.3622" stroke-linecap="round" stroke-linejoin="round"/>
<path d="M127.934 102.864L120.141 97.0194" stroke="#FDBC14" stroke-width="2.3622" stroke-linecap="round" stroke-linejoin="round"/>
<path d="M134.428 101.565V107.41" stroke="#FDBC14" stroke-width="2.3622" stroke-linecap="round" stroke-linejoin="round"/>
<path d="M127.935 102.864V108.709" stroke="#FDBC14" stroke-width="2.3622" stroke-linecap="round" stroke-linejoin="round"/>
<path d="M119.138 89.1224C119.756 90.3245 121.282 91.1746 123.064 91.1746C125.395 91.1746 127.285 89.7203 127.285 87.9276C127.285 85.4918 125.315 84.9506 123.064 84.6806C120.149 84.3296 118.843 83.2262 118.843 81.4335C118.843 79.6409 120.733 78.1865 123.064 78.1865C124.799 78.1865 126.29 78.9914 126.939 80.1431" stroke="#FDBC14" stroke-width="2.3622" stroke-linecap="round" stroke-linejoin="round"/>
<path d="M123.389 76.2384V93.1229" stroke="#FDBC14" stroke-width="2.3622" stroke-linecap="round" stroke-linejoin="round"/>
<path d="M131.181 91.1746C132.192 90.1009 132.89 88.9356 133.13 87.2782" stroke="#FDBC14" stroke-width="2.3622" stroke-linecap="round" stroke-linejoin="round"/>
<path d="M108.451 84.2623C110.276 78.5402 116.726 73.7898 119.093 70.1872C120.95 67.3619 115.087 62.856 114.088 61.406C113.07 59.925 114.748 57.9977 117.8 58.0565C121.8 58.1344 122.852 60.7002 125.202 60.098C126.927 59.6549 129.706 58.7185 130.339 60.0222C131.44 62.2901 124.39 66.6412 126.579 70.2865C128.863 74.092 137.675 80.1888 137.675 87.2648C137.675 88.9145 137.25 90.4489 136.493 91.8241" stroke="#FDBC14" stroke-width="2.3622" stroke-linecap="round" stroke-linejoin="round"/>
<path d="M118.843 68.4455H127.934" stroke="#FDBC14" stroke-width="2.3622" stroke-linecap="round" stroke-linejoin="round"/>
<path d="M99.3607 87.9278C95.4155 87.9278 92.2173 86.8063 92.2173 85.4228V82.0832" stroke="#FDBC14" stroke-width="2.3622" stroke-linecap="round" stroke-linejoin="round"/>
<path d="M105.205 82.083V84.6806" stroke="#FDBC14" stroke-width="2.3622" stroke-linecap="round" stroke-linejoin="round"/>
<path d="M99.3607 91.8241C95.4155 91.8241 92.2173 90.5779 92.2173 89.0408V85.33" stroke="#FDBC14" stroke-width="2.3622" stroke-linecap="round" stroke-linejoin="round"/>
<path d="M99.3607 95.0713C95.4155 95.0713 92.2173 93.9498 92.2173 92.5663V89.2267" stroke="#FDBC14" stroke-width="2.3622" stroke-linecap="round" stroke-linejoin="round"/>
<path d="M99.3607 98.3182C95.4155 98.3182 92.2173 97.1967 92.2173 95.8132V92.4736" stroke="#FDBC14" stroke-width="2.3622" stroke-linecap="round" stroke-linejoin="round"/>
<path d="M101.958 89.8758C101.958 91.3104 104.866 92.4734 108.452 92.4734C112.039 92.4734 114.946 91.3104 114.946 89.8758C114.946 88.4412 112.039 87.2782 108.452 87.2782C104.866 87.2782 101.958 88.4412 101.958 89.8758Z" stroke="#FDBC14" stroke-width="2.3622" stroke-linecap="round" stroke-linejoin="round"/>
<path d="M114.946 89.8761V93.2157C114.946 94.5992 112.039 95.7207 108.452 95.7207C104.866 95.7207 101.958 94.5992 101.958 93.2157V89.8761" stroke="#FDBC14" stroke-width="2.3622" stroke-linecap="round" stroke-linejoin="round"/>
<path d="M107.803 98.9676C104.575 98.9676 101.958 97.846 101.958 96.4626V93.1229" stroke="#FDBC14" stroke-width="2.3622" stroke-linecap="round" stroke-linejoin="round"/>
<path d="M107.803 102.864C104.575 102.864 101.958 101.618 101.958 100.081V96.3702" stroke="#FDBC14" stroke-width="2.3622" stroke-linecap="round" stroke-linejoin="round"/>
<path d="M92.2173 78.836C92.2173 80.2706 95.1247 81.4336 98.7113 81.4336C102.298 81.4336 105.205 80.2706 105.205 78.836C105.205 77.4014 102.298 76.2384 98.7113 76.2384C95.1247 76.2384 92.2173 77.4014 92.2173 78.836Z" stroke="#FDBC14" stroke-width="2.3622" stroke-linecap="round" stroke-linejoin="round"/>
<path d="M105.205 78.8363V82.1759C105.205 83.5594 102.298 84.6809 98.7113 84.6809C95.1247 84.6809 92.2173 83.5594 92.2173 82.1759V78.8363" stroke="#FDBC14" stroke-width="2.3622" stroke-linecap="round" stroke-linejoin="round"/>
<path d="M114.946 93.123V95.0712" stroke="#FDBC14" stroke-width="2.3622" stroke-linecap="round" stroke-linejoin="round"/>
<g filter="url(#filter0_f_119_2081)">
<rect x="65.8824" y="65.1579" width="102.362" height="62.9921" fill="url(#paint0_radial_119_2081)"/>
</g>
<defs>
<filter id="filter0_f_119_2081" x="0.942039" y="0.217545" width="232.243" height="192.873" filterUnits="userSpaceOnUse" color-interpolation-filters="sRGB">
<feFlood flood-opacity="0" result="BackgroundImageFix"/>
<feBlend mode="normal" in="SourceGraphic" in2="BackgroundImageFix" result="shape"/>
<feGaussianBlur stdDeviation="32.4702" result="effect1_foregroundBlur_119_2081"/>
</filter>
<radialGradient id="paint0_radial_119_2081" cx="0" cy="0" r="1" gradientUnits="userSpaceOnUse" gradientTransform="translate(117.063 96.6539) rotate(90) scale(31.4961 51.1811)">
<stop stop-color="#FF9A02"/>
<stop offset="1" stop-color="#FF9A02" stop-opacity="0"/>
</radialGradient>
</defs>
</svg>
