<svg width="212" height="173" viewBox="0 0 212 173" fill="none" xmlns="http://www.w3.org/2000/svg">
<g filter="url(#filter0_f_119_2042)">
<rect x="54.4294" y="54.748" width="102.362" height="62.9923" fill="url(#paint0_radial_119_2042)"/>
</g>
<path d="M100.005 45.7629C98.5692 46.3491 96.7727 47.4183 95.4293 47.8797C94.2515 48.2868 92.881 48.9245 92.6477 50.3004C92.5174 51.0766 92.805 51.888 92.6639 52.6614C92.3138 54.5747 89.7629 54.9003 89.1305 56.7159C88.7723 57.7417 89.1821 58.9493 89.8687 59.7228C90.5553 60.4989 91.4753 60.9359 92.3708 61.3538C92.6422 61.4813 92.9055 61.6035 93.1551 61.7202" stroke="#FDBC14" stroke-width="2.3622" stroke-linecap="round" stroke-linejoin="round"/>
<path d="M71.8845 67.9865C73.7868 67.5849 75.5047 68.2362 77.6377 68.6785C78.7911 68.9174 79.9445 69.1589 81.0978 69.395C83.0789 69.8075 85.3233 70.41 86.2215 72.2255C87.5513 74.9122 84.965 78.1118 85.6516 81.0291C85.8606 81.9301 86.3708 82.7226 86.7643 83.5557C87.1605 84.3916 87.4455 85.3496 87.1768 86.2315C87.1008 86.4758 86.995 86.5952 86.8511 86.663" stroke="#FDBC14" stroke-width="2.3622" stroke-linecap="round" stroke-linejoin="round"/>
<path d="M93.2843 87.6485C81.4223 87.6485 71.8045 78.0307 71.8045 66.1686C71.8045 54.3064 81.4223 44.6887 93.2843 44.6887C102.202 44.6887 109.849 50.1217 113.098 57.8588" stroke="#FDBC14" stroke-width="2.3622" stroke-linecap="round" stroke-linejoin="round"/>
<path d="M85.5468 46.591C86.3229 47.5843 86.0868 49.0308 85.7449 50.2411C85.3188 51.75 84.7191 53.4461 82.947 54.1653C82.4775 54.3553 81.9591 54.4584 81.4408 54.5669C80.8302 54.6918 80.225 54.8221 79.7094 55.0961C78.5017 55.742 78.1625 56.9687 77.5654 58.0027C76.5668 59.7422 74.5802 61.1236 72.2382 61.7206" stroke="#FDBC14" stroke-width="2.3622" stroke-linecap="round" stroke-linejoin="round"/>
<path d="M100.625 73.5203H110.204" stroke="#FDBC14" stroke-width="2.3622" stroke-linecap="round" stroke-linejoin="round"/>
<path d="M99.4205 67.3272H105.765" stroke="#FDBC14" stroke-width="2.3622" stroke-linecap="round" stroke-linejoin="round"/>
<path d="M94.5407 67.3272H96.1554" stroke="#FDBC14" stroke-width="2.3622" stroke-linecap="round" stroke-linejoin="round"/>
<path d="M93.4719 79.713H95.0893" stroke="#FDBC14" stroke-width="2.3622" stroke-linecap="round" stroke-linejoin="round"/>
<path d="M97.9856 79.713H107.565" stroke="#FDBC14" stroke-width="2.3622" stroke-linecap="round" stroke-linejoin="round"/>
<path d="M108.723 87.8358H122.398H124.298" stroke="#FDBC14" stroke-width="2.3622" stroke-linecap="round" stroke-linejoin="round"/>
<path d="M130.966 72.5107H126.068" stroke="#FDBC14" stroke-width="2.3622" stroke-linecap="round" stroke-linejoin="round"/>
<path d="M122.398 69.5741H128.751C129.451 69.5741 130.089 69.9784 130.385 70.6162C131.506 73.0261 134.19 78.7821 134.228 78.7604L137.406 80.4918C137.544 80.5678 137.631 80.7116 137.631 80.869V87.4473" stroke="#FDBC14" stroke-width="2.3622" stroke-linecap="round" stroke-linejoin="round"/>
<path d="M134.228 78.7606H125.98L125.926 72.5107" stroke="#FDBC14" stroke-width="2.3622" stroke-linecap="round" stroke-linejoin="round"/>
<path d="M130.967 91.8627C133.191 91.8627 134.994 90.0596 134.994 87.8354C134.994 85.6112 133.191 83.8081 130.967 83.8081C128.743 83.8081 126.94 85.6112 126.94 87.8354C126.94 90.0596 128.743 91.8627 130.967 91.8627Z" stroke="#FDBC14" stroke-width="2.3622" stroke-linecap="round" stroke-linejoin="round"/>
<path d="M101.659 91.8627C103.883 91.8627 105.686 90.0596 105.686 87.8354C105.686 85.6112 103.883 83.8081 101.659 83.8081C99.435 83.8081 97.6319 85.6112 97.6319 87.8354C97.6319 90.0596 99.435 91.8627 101.659 91.8627Z" stroke="#FDBC14" stroke-width="2.3622" stroke-linecap="round" stroke-linejoin="round"/>
<path d="M122.4 87.8356V65.0585C122.4 64.2633 121.754 63.6174 120.959 63.6174H107.837" stroke="#FDBC14" stroke-width="2.3622" stroke-linecap="round" stroke-linejoin="round"/>
<defs>
<filter id="filter0_f_119_2042" x="0.153034" y="0.471684" width="210.915" height="171.545" filterUnits="userSpaceOnUse" color-interpolation-filters="sRGB">
<feFlood flood-opacity="0" result="BackgroundImageFix"/>
<feBlend mode="normal" in="SourceGraphic" in2="BackgroundImageFix" result="shape"/>
<feGaussianBlur stdDeviation="27.1382" result="effect1_foregroundBlur_119_2042"/>
</filter>
<radialGradient id="paint0_radial_119_2042" cx="0" cy="0" r="1" gradientUnits="userSpaceOnUse" gradientTransform="translate(105.61 86.2442) rotate(90) scale(31.4962 51.1811)">
<stop stop-color="#FF9A02"/>
<stop offset="1" stop-color="#FF9A02" stop-opacity="0"/>
</radialGradient>
</defs>
</svg>
