<svg width="77" height="48" viewBox="0 0 77 48" fill="none" xmlns="http://www.w3.org/2000/svg">
<path d="M1.50537 32.6299L4.10497 28.419C6.37497 29.9203 8.86477 30.6892 10.9151 30.6892C12.123 30.6892 12.673 30.3231 12.673 29.6274V29.5541C12.673 28.7852 11.574 28.4557 9.48717 27.8698C5.56947 26.8445 2.45727 25.5264 2.45727 21.5352V21.462C2.45727 17.2511 5.82577 14.9077 10.4025 14.9077C13.295 14.9077 16.297 15.7499 18.567 17.2145L16.188 21.6084C14.137 20.4733 11.904 19.7776 10.3293 19.7776C9.26747 19.7776 8.71827 20.1804 8.71827 20.7297V20.8029C8.71827 21.5718 9.85327 21.938 11.94 22.5605C15.858 23.6589 18.97 25.0137 18.97 28.8584V28.9317C18.97 33.289 15.712 35.5592 10.8785 35.5592C7.54667 35.5592 4.25137 34.6072 1.50537 32.6299Z" fill="white"/>
<path d="M21.936 28.9681V20.9126H19.592V15.3104H21.936V10.2939H28.892V15.3104H33.506V20.9126H28.892V27.6134C28.892 29.0048 29.515 29.5906 30.796 29.5906C31.711 29.5906 32.59 29.3343 33.432 28.9315V34.3873C32.187 35.083 30.54 35.5224 28.599 35.5224C24.425 35.5224 21.936 33.6916 21.936 28.9681Z" fill="white"/>
<path d="M35.0439 15.3105H41.9999V18.0201C43.2819 16.3723 45.113 14.8711 47.895 14.8711C50.531 14.8711 52.5449 16.0428 53.6069 18.0933C55.3279 16.116 57.3419 14.8711 60.2339 14.8711C64.4449 14.8711 67.0079 17.5074 67.0079 22.1211V35.1198H60.0509V24.3546C60.0509 22.1943 58.9889 21.0592 57.3419 21.0592C55.6939 21.0592 54.4859 22.1943 54.4859 24.3546V35.1198H47.529V24.3546C47.529 22.1943 46.467 21.0592 44.82 21.0592C43.172 21.0592 41.9999 22.1943 41.9999 24.3546V35.1198H35.0439V15.3105Z" fill="white"/>
<path d="M68.106 27.9795H75.3549V35.1196H68.106V27.9795Z" fill="white"/>
</svg>
