<svg width="98" height="34" viewBox="0 0 98 34" fill="none" xmlns="http://www.w3.org/2000/svg">
<g clip-path="url(#clip0_0_816)">
<path d="M63.8179 0.556213C56.8665 0.556213 50.6544 4.293 50.6544 11.197C50.6544 19.1146 61.6718 19.6614 61.6718 23.639C61.6718 25.3138 59.8212 26.813 56.6604 26.813C52.1747 26.813 48.822 24.7182 48.822 24.7182L47.3874 31.6851C47.3874 31.6851 51.2496 33.4546 56.3773 33.4546C63.9775 33.4546 69.9578 29.5343 69.9578 22.5123C69.9578 14.1459 58.8945 13.6153 58.8945 9.92344C58.8945 8.61148 60.4137 7.17397 63.5654 7.17397C67.1215 7.17397 70.0229 8.69749 70.0229 8.69749L71.4268 1.96864C71.4268 1.96864 68.2699 0.556213 63.8179 0.556213ZM0.219103 1.06405L0.0507812 2.07973C0.0507812 2.07973 2.97526 2.63482 5.60922 3.7421C9.00067 5.01183 9.24226 5.751 9.81344 8.04682L16.0375 32.9309H24.3809L37.2346 1.06405H28.9103L20.6511 22.7305L17.2808 4.365C16.9717 2.26308 15.4061 1.06405 13.4897 1.06405H0.219103ZM40.5819 1.06405L34.0518 32.9309H41.9897L48.4968 1.06405H40.5819ZM84.8543 1.06405C82.9402 1.06405 81.926 2.12687 81.1818 3.98412L69.5523 32.9309H77.8766L79.4871 28.1064H89.6285L90.6078 32.9309H97.9528L91.5451 1.06405H84.8543ZM85.9369 9.67349L88.4044 21.6315H81.7939L85.9369 9.67349Z" fill="#1434CB"/>
</g>
<defs>
<clipPath id="clip0_0_816">
<rect width="98" height="33" fill="white" transform="translate(0 0.505371)"/>
</clipPath>
</defs>
</svg>
