<svg width="98" height="41" viewBox="0 0 98 41" fill="none" xmlns="http://www.w3.org/2000/svg">
<g clip-path="url(#clip0_0_821)">
<path d="M3.14942 39.8387V28.5331H0.0546875V25.0332H9.98364V28.5331H6.8889V39.8387H3.14942ZM11.8147 39.8387V25.0054H15.7347C17.2821 25.0054 18.3394 25.0887 18.9584 25.2276C19.5515 25.3665 20.0931 25.6443 20.5315 26.0054C21.0215 26.422 21.4084 26.922 21.6663 27.5609C21.9242 28.1998 22.0531 28.8943 22.0531 29.6443C22.0531 30.7831 21.7952 31.7276 21.2794 32.4498C20.7636 33.172 19.99 33.6443 18.9842 33.8943L22.7236 39.8665H18.4942L15.3478 34.0609V39.8665L11.8147 39.8387ZM15.3221 32.0332H16.0184C16.8178 32.0332 17.411 31.8943 17.7978 31.5887C18.1589 31.2831 18.3652 30.8387 18.3652 30.1998C18.3652 29.4498 18.1847 28.922 17.8494 28.6165C17.5142 28.3109 16.921 28.1443 16.0957 28.1443H15.3478L15.3221 32.0332Z" fill="#406CDC"/>
<path d="M22.5423 39.8387L27.2875 25.0054H31.9812L36.7265 39.8387H33.0128L32.3165 37.172H26.9781L26.256 39.8387H22.5423ZM27.7775 34.3109H31.517L30.1244 29.422C30.047 29.172 29.9954 28.9498 29.9438 28.6998L29.6602 27.422C29.5828 27.7831 29.5054 28.1443 29.4281 28.4776C29.3507 28.8109 29.2733 29.1165 29.196 29.422L27.7775 34.3109ZM38.0417 39.8387V25.0054H41.6523L46.8617 32.6165C46.9649 32.7832 47.1196 33.0887 47.3517 33.5609C47.5839 34.0332 47.8417 34.5887 48.0996 35.2276C48.0223 34.672 47.9707 34.1443 47.9449 33.5887C47.9191 33.1165 47.8933 32.672 47.8933 32.3109V24.9776H51.5039V39.8109H47.8933L42.6838 32.1443C42.5807 31.9776 42.4002 31.672 42.1681 31.1998C41.936 30.7276 41.6781 30.172 41.4202 29.5332C41.4975 30.1443 41.5491 30.6998 41.5749 31.172C41.6007 31.6443 41.6265 32.0887 41.6265 32.4498V39.7831H38.0417V39.8387ZM55.0628 35.0609C55.6302 35.7554 56.1717 36.2554 56.7133 36.5887C57.2549 36.922 57.7965 37.0887 58.3381 37.0887C58.8281 37.0887 59.2407 36.9498 59.576 36.6443C59.9112 36.3665 60.066 35.9776 60.066 35.5332C60.066 35.0332 59.937 34.672 59.6533 34.3943C59.3696 34.1165 58.7507 33.8387 57.7449 33.5609C56.4038 33.172 55.4496 32.672 54.8823 32.0332C54.3149 31.3943 54.057 30.5332 54.057 29.4498C54.057 28.0332 54.4954 26.8665 55.3723 25.9776C56.2491 25.0887 57.3838 24.6443 58.8023 24.6443C59.5502 24.6443 60.2723 24.7554 60.9686 24.9776C61.6391 25.1998 62.2838 25.5332 62.9028 25.9776L61.7165 28.8943C61.3296 28.5332 60.8912 28.2276 60.4012 28.0054C59.9886 27.8109 59.5244 27.6998 59.0602 27.6998C58.6217 27.6998 58.2349 27.8109 57.9512 28.0609C57.6933 28.2554 57.5128 28.5887 57.5386 28.9498C57.5386 29.3109 57.6675 29.6165 57.8996 29.8387C58.1575 30.0609 58.6217 30.2831 59.3438 30.4776L59.5244 30.5332C61.0459 30.9776 62.0517 31.4776 62.5417 32.0054C62.877 32.3665 63.1091 32.8109 63.2896 33.3109C63.4702 33.8109 63.5475 34.3943 63.5475 35.0054C63.5475 36.5887 63.0575 37.8387 62.1033 38.8109C61.1491 39.7554 59.8596 40.2554 58.2607 40.2554C57.3065 40.2554 56.4296 40.0887 55.6302 39.7276C54.8565 39.3665 54.0828 38.8387 53.3607 38.0887C53.3865 38.0609 55.0628 35.0609 55.0628 35.0609ZM65.6365 39.8387V25.0054H74.0696V28.2832H69.2986V30.8665H73.8117V34.0331H69.2986V39.8665L65.6365 39.8387ZM76.107 39.8387V25.0054H84.5402V28.2832H79.7691V30.8665H84.2823V34.0331H79.7691V36.5332H84.5402V39.8665L76.107 39.8387ZM87.0417 39.8387V25.0054H90.9617C92.5091 25.0054 93.5665 25.0887 94.1854 25.2276C94.7786 25.3665 95.3202 25.6443 95.7586 26.0054C96.2486 26.422 96.6354 26.922 96.8933 27.5609C97.1512 28.1998 97.3059 28.8943 97.3059 29.6443C97.3059 30.7831 97.048 31.7276 96.5323 32.4498C96.0165 33.172 95.2428 33.6443 94.237 33.8943L97.9765 39.8665H93.747L90.6007 34.0609V39.8665L87.0417 39.8387ZM90.5491 32.0332H91.2454C92.0449 32.0332 92.6381 31.8943 93.0249 31.5887C93.386 31.2831 93.5923 30.8387 93.5923 30.1998C93.5923 29.4498 93.4117 28.922 93.0765 28.6165C92.7412 28.3109 92.1481 28.1443 91.3228 28.1443H90.5749V32.0332H90.5491ZM43.0707 0.922039L45.5723 11.0887C45.7012 11.5609 45.8044 12.0332 45.9075 12.5332C46.0107 13.0332 46.1138 13.5887 46.217 14.2554C46.346 13.5054 46.4749 12.8665 46.5523 12.3665C46.6554 11.8665 46.7328 11.4498 46.836 11.0887L49.1828 0.922039H54.6502L49.0281 22.3387H43.9991L41.5491 13.1998C41.446 12.8665 41.317 12.2554 41.1107 11.3109C41.0075 10.8943 40.956 10.5609 40.9044 10.3387L40.7238 11.1998C40.5691 11.8665 40.4144 12.5332 40.2596 13.1998L37.8354 22.3387H32.7549L27.1586 0.922039H32.626L34.8954 11.172C34.9986 11.6998 35.1017 12.2276 35.2049 12.7554C35.3081 13.2832 35.4112 13.8109 35.4886 14.3665C35.6949 13.2831 35.927 12.2276 36.1849 11.172L38.6865 0.922039C38.7123 0.922039 43.0707 0.922039 43.0707 0.922039ZM56.6617 22.3387V0.922039H62.1291V22.3387H56.6617ZM66.4875 22.3387V0.922039H72.1612C74.3791 0.922039 75.9265 1.03315 76.8033 1.25537C77.6802 1.47759 78.4281 1.83871 79.0728 2.36648C79.7949 2.94982 80.3623 3.7276 80.7233 4.61648C81.1102 5.53315 81.2907 6.53315 81.2907 7.61649C81.2907 9.28315 80.9038 10.6165 80.1559 11.672C79.4081 12.6998 78.2991 13.3943 76.8549 13.7276L82.2707 22.3665H76.1586L71.5938 13.9776V22.3665H66.4875V22.3387ZM71.5681 11.0331H72.5738C73.7344 11.0331 74.5854 10.8109 75.127 10.3943C75.6686 9.9776 75.9265 9.28315 75.9265 8.36649C75.9265 7.28315 75.6686 6.53315 75.1786 6.08871C74.6628 5.64426 73.8375 5.42204 72.6512 5.42204H71.5681V11.0331ZM84.3338 22.3387V0.922039H96.5065V5.61648H89.6207V9.33871H96.1196V13.922H89.6207V17.5332H96.5065V22.3387H84.3338ZM25.0181 0.755371H0.234375V5.00537H25.0181V0.755371ZM25.0181 9.00537H0.234375V13.2554H25.0181V9.00537ZM25.0181 17.9776H0.234375V22.2276H25.0181V17.9776Z" fill="#406CDC"/>
</g>
<defs>
<clipPath id="clip0_0_821">
<rect width="98" height="40" fill="white" transform="translate(0 0.505371)"/>
</clipPath>
</defs>
</svg>
